<svg width="16" height="16" viewBox="0 0 16 16" version="1.1" xmlns="http://www.w3.org/2000/svg" xmlns:xlink="http://www.w3.org/1999/xlink">
<title>close1</title>
<desc>Created using Figma</desc>
<g id="Canvas" transform="translate(-9485 724)">
<g id="close1">
<g id="Shape">
<use xlink:href="#path0_fill" transform="translate(9485 -724)" fill="#484848"/>
</g>
</g>
</g>
<defs>
<path id="path0_fill" d="M 15.5536 14.1803C 15.9657 14.5923 15.9657 15.279 15.5536 15.691C 15.1416 16.103 14.4549 16.103 14.0429 15.691L 8 9.51073L 1.81974 15.691C 1.40773 16.103 0.72103 16.103 0.309013 15.691C -0.103004 15.279 -0.103004 14.5923 0.309013 14.1803L 6.48927 8L 0.446352 1.81974C 0.0343348 1.40773 0.0343348 0.72103 0.446352 0.309013C 0.858369 -0.103004 1.54506 -0.103004 1.95708 0.309013L 8 6.48927L 14.1803 0.309013C 14.5923 -0.103004 15.279 -0.103004 15.691 0.309013C 16.103 0.72103 16.103 1.40773 15.691 1.81974L 9.51073 8L 15.5536 14.1803Z"/>
</defs>
</svg>
