<svg width="26" height="23" viewBox="0 0 26 23" version="1.1" xmlns="http://www.w3.org/2000/svg" xmlns:xlink="http://www.w3.org/1999/xlink">
<title>like</title>
<desc>Created using Figma</desc>
<g id="Canvas" transform="translate(-9780 679)">
<g id="like">
<g id="Shape">
<use xlink:href="#path0_fill" transform="translate(9781.56 -677.425)" fill="#484848" fill-opacity="0.01"/>
<use xlink:href="#path1_stroke" transform="translate(9781.56 -677.425)" fill="#767676"/>
</g>
</g>
</g>
<defs>
<path id="path0_fill" d="M 17.4322 0C 17.2102 0 16.9845 0.0130398 16.7588 0.0391193C 15.9038 0.139602 15.0428 0.432614 14.2028 0.910483C 13.2803 1.43361 12.3953 2.15386 11.4368 3.16253C 10.4768 2.1531 9.59325 1.43361 8.6715 0.909716C 7.8315 0.432614 6.9705 0.139602 6.114 0.0391193C 5.8909 0.0131571 5.66654 9.65422e-05 5.442 6.81273e-16C 4.02975 0 0 1.18048 0 6.42631C 0 12.4568 9.1785 18.9552 11.0197 20.1963C 11.2725 20.3685 11.6017 20.3685 11.8545 20.1963C 13.695 18.9552 22.8743 12.4568 22.8743 6.42631C 22.8743 1.17972 18.8438 0 17.4322 0Z"/>
<path id="path1_stroke" d="M 17.4322 0.75C 17.8465 0.75 18.1822 0.414214 18.1822 0C 18.1822 -0.414214 17.8465 -0.75 17.4322 -0.75L 17.4322 0.75ZM 16.7588 0.0391193L 16.6727 -0.705927L 16.6712 -0.705754L 16.7588 0.0391193ZM 14.2028 0.910483L 14.5727 1.56289L 14.5736 1.56238L 14.2028 0.910483ZM 11.4368 3.16253L 10.8933 3.67938C 11.0349 3.82829 11.2314 3.91257 11.4369 3.91253C 11.6424 3.91249 11.8389 3.82813 11.9804 3.67917L 11.4368 3.16253ZM 8.6715 0.909716L 9.0421 0.257675L 9.04191 0.257567L 8.6715 0.909716ZM 6.114 0.0391193L 6.20139 -0.705772L 6.20069 -0.705853L 6.114 0.0391193ZM 5.442 6.81273e-16L 5.44232 -0.75L 5.442 -0.75L 5.442 6.81273e-16ZM 11.0197 20.1963L 11.4419 19.5764L 11.4389 19.5744L 11.0197 20.1963ZM 11.8545 20.1963L 11.4352 19.5745L 11.4323 19.5764L 11.8545 20.1963ZM 17.4322 -0.75C 17.018 -0.75 16.6822 -0.414214 16.6822 0C 16.6822 0.414214 17.018 0.75 17.4322 0.75L 17.4322 -0.75ZM 17.4322 -0.75C 17.1886 -0.749688 16.9198 -0.734165 16.6727 -0.705926L 16.8448 0.784164C 17.0492 0.760245 17.2319 0.749688 17.4322 0.75L 17.4322 -0.75ZM 16.6712 -0.705754C 15.7382 -0.591909 14.7351 -0.251398 13.8319 0.25859L 14.5736 1.56238C 15.3504 1.11662 16.0693 0.871113 16.8463 0.783993L 16.6712 -0.705754ZM 13.8328 0.25808C 12.8571 0.814391 11.8857 1.60357 10.8931 2.64589L 11.9804 3.67917C 12.9048 2.70416 13.7034 2.05282 14.5727 1.56289L 13.8328 0.25808ZM 11.9802 2.64567C 10.9863 1.60278 10.0168 0.814664 9.0421 0.257675L 8.3009 1.56176C 9.16968 2.05255 9.96719 2.70341 10.8933 3.67938L 11.9802 2.64567ZM 9.04191 0.257567C 8.13888 -0.251504 7.13593 -0.591925 6.20139 -0.705772L 6.02661 0.784011C 6.80507 0.87113 7.52412 1.11673 8.30109 1.56187L 9.04191 0.257567ZM 6.20069 -0.705853C 5.95606 -0.734006 5.6885 -0.749582 5.44232 -0.75L 5.44168 0.75C 5.64458 0.749775 5.82573 0.760321 6.02731 0.784092L 6.20069 -0.705853ZM 5.442 -0.75C 4.58218 -0.75 3.05165 -0.406823 1.72178 0.661204C 0.354856 1.75898 -0.75 3.58347 -0.75 6.42631L 0.75 6.42631C 0.75 4.02332 1.66002 2.63465 2.66103 1.83073C 3.6991 0.997064 4.88957 0.75 5.442 0.75L 5.442 -0.75ZM -0.75 6.42631C -0.75 9.77245 1.75839 13.0982 4.28816 15.6368C 6.86119 18.2147 9.67398 20.1936 10.6006 20.8182L 11.4389 19.5744C 10.5243 18.9579 7.82718 17.0671 5.35065 14.5779C 2.83086 12.0494 0.75 9.11067 0.75 6.42631L -0.75 6.42631ZM 10.5976 20.8162C 11.1051 21.1618 11.7692 21.1618 12.2767 20.8162L 11.4323 19.5764C 11.4322 19.5765 11.4342 19.5754 11.4371 19.5754C 11.44 19.5754 11.442 19.5765 11.4419 19.5764L 10.5976 20.8162ZM 12.2738 20.8181C 13.2 20.1936 16.0127 18.2147 18.5858 15.6368C 21.1156 13.0982 23.6243 9.77247 23.6243 6.42631L 22.1243 6.42631C 22.1243 9.11065 20.0432 12.0494 17.5233 14.5779C 15.0467 17.0671 12.3495 18.9579 11.4352 19.5745L 12.2738 20.8181ZM 23.6243 6.42631C 23.6243 3.58306 22.5192 1.75856 21.1521 0.660875C 19.8222 -0.407048 18.2916 -0.75 17.4322 -0.75L 17.4322 0.75C 17.9844 0.75 19.1748 0.996906 20.213 1.83049C 21.2141 2.63431 22.1243 4.02296 22.1243 6.42631L 23.6243 6.42631Z"/>
</defs>
</svg>
