<svg width="24" height="24" viewBox="0 0 24 24" version="1.1" xmlns="http://www.w3.org/2000/svg" xmlns:xlink="http://www.w3.org/1999/xlink">
<title>Shape</title>
<desc>Created using Figma</desc>
<g id="Canvas" transform="translate(-9741 680)">
<g id="Shape">
<use xlink:href="#path0_fill" transform="translate(9741 -680)" fill="#767676"/>
</g>
</g>
<defs>
<path id="path0_fill" fill-rule="evenodd" d="M 7.96582 4.6493C 7.88867 4.66901 7.80762 4.67902 7.72461 4.67902C 7.45508 4.68 7.20312 4.57002 7.03418 4.38001C 6.8877 4.21552 6.81934 4.00367 6.8457 3.79249C 6.87109 3.58131 6.98926 3.38862 7.17188 3.258L 11.4482 0.168038C 11.4727 0.153451 11.498 0.141061 11.5254 0.13099L 11.5996 0.0980307L 11.666 0.0629966L 11.6768 0.0560386C 11.7803 0.0189902 11.8896 8.27789e-06 12 8.27789e-06C 12.1143 -0.000480003 12.2275 0.0206382 12.333 0.06202L 12.3877 0.0919883L 12.4004 0.0980307L 12.4746 0.13099C 12.501 0.141122 12.5273 0.153512 12.5508 0.168038L 16.8271 3.258C 17.0088 3.38905 17.126 3.58149 17.1523 3.79218C 17.1777 4.00288 17.1104 4.21424 16.9648 4.37904C 16.7959 4.57002 16.542 4.68043 16.2744 4.67902C 16.1963 4.67945 16.1182 4.67017 16.0439 4.65186C 15.9277 4.62354 15.8193 4.57349 15.7246 4.50404L 13.5322 2.91999L 12.8838 2.45203L 12.8838 16.242C 12.8838 16.681 12.4863 17.04 12 17.04C 11.5127 17.04 11.1162 16.681 11.1162 16.241L 11.1162 2.451L 10.4678 2.91999L 8.27539 4.50404C 8.18164 4.57203 8.07715 4.6208 7.96582 4.6493ZM 19.6963 8.49799L 23.1162 8.49799C 23.6006 8.4958 23.9951 8.85243 24 9.29603L 24 23.202C 24 23.642 23.6025 24 23.1162 24L 0.883789 24C 0.397461 24 0 23.642 0 23.202L 0 9.29603C 0.00488281 8.85243 0.399414 8.4958 0.883789 8.49799L 5.15918 8.49799C 5.64258 8.4958 6.03809 8.85243 6.04297 9.29603C 6.04297 9.73603 5.64551 10.095 5.15918 10.095L 1.76758 10.095L 1.76758 22.403L 22.2324 22.403L 22.2324 10.094L 19.6963 10.094C 19.209 10.094 18.8125 9.73603 18.8125 9.29603C 18.8174 8.85243 19.2129 8.4958 19.6963 8.49799Z"/>
</defs>
</svg>
