<svg width="20" height="17" viewBox="0 0 20 17" version="1.1" xmlns="http://www.w3.org/2000/svg" xmlns:xlink="http://www.w3.org/1999/xlink">
<title>bathtub</title>
<desc>Created using Figma</desc>
<g id="Canvas" transform="translate(-6874 271)">
<g id="bathtub">
<g id="Shape">
<use xlink:href="#path0_fill" transform="translate(6874 -270.959)"/>
</g>
<g id="Shape">
<use xlink:href="#path1_fill" transform="translate(6885.75 -267.863)"/>
</g>
<g id="Shape">
<use xlink:href="#path2_fill" transform="translate(6886.78 -267.194)"/>
</g>
<g id="Shape">
<use xlink:href="#path3_fill" transform="translate(6885.04 -268.526)"/>
</g>
</g>
</g>
<defs>
<path id="path0_fill" fill-rule="evenodd" d="M 18.8223 6.41623C 19.147 6.41623 19.4316 6.53809 19.6143 6.76141C 19.8374 6.96448 19.9595 7.24872 19.9595 7.57361C 19.9595 7.89847 19.8174 8.18274 19.6143 8.38577C 19.4111 8.60913 19.127 8.73096 18.8022 8.73096L 18.5381 8.73096L 18.1118 12.934C 18.0508 13.5025 17.8071 14.0305 17.4414 14.3959C 17.0762 14.7614 16.6094 14.9848 16.0405 14.9848C 15.939 14.9848 15.8374 15.0254 15.7563 15.1066C 15.6753 15.1675 15.6343 15.269 15.6343 15.3909C 15.6343 15.5127 15.6753 15.5939 15.7358 15.6751L 15.7563 15.6954C 15.7729 15.7179 15.793 15.7373 15.8159 15.7535C 15.8452 15.7746 15.8789 15.7905 15.9165 15.8011C 15.9321 15.8055 15.9482 15.8091 15.9653 15.8117C 15.9893 15.8154 16.0142 15.8173 16.0405 15.8173C 16.2031 15.8173 16.3452 15.9594 16.3452 16.1218C 16.3452 16.2843 16.2231 16.4264 16.0405 16.4264C 15.7563 16.4264 15.4922 16.3046 15.3096 16.1218L 15.2896 16.1015C 15.1064 15.9188 15.0049 15.6751 15.0049 15.3909L 15.0073 15.3129C 15.0088 15.2877 15.0107 15.2625 15.0137 15.2376C 15.0249 15.1485 15.0474 15.0625 15.0864 14.9848L 4.87305 14.9848C 4.91357 15.1066 4.9541 15.2487 4.9541 15.3909C 4.9541 15.6751 4.83252 15.9391 4.6499 16.1218C 4.4668 16.3046 4.20312 16.4264 3.91895 16.4264C 3.75635 16.4264 3.61426 16.2843 3.61426 16.1218C 3.61426 15.9594 3.73584 15.8173 3.91895 15.8173C 4.02051 15.8173 4.12207 15.7767 4.20312 15.6954C 4.28418 15.6345 4.32471 15.533 4.32471 15.4112C 4.32471 15.38 4.3208 15.3488 4.31299 15.3181C 4.30566 15.289 4.29492 15.2604 4.28076 15.2328C 4.26123 15.1951 4.23535 15.1594 4.20312 15.1269C 4.17676 15.0919 4.14307 15.0645 4.10352 15.0446C 4.05078 15.0182 3.98828 15.0051 3.91895 15.0051C 3.37061 15.0051 2.8833 14.7817 2.51758 14.4162C 2.15234 14.0508 1.90869 13.5229 1.84766 12.9543L 1.42139 8.75128L 1.15723 8.75128C 0.83252 8.75128 0.54834 8.60913 0.345215 8.4061C 0.12207 8.20303 0 7.91879 0 7.5939C 0 7.26904 0.14209 6.98477 0.345215 6.78174C 0.54834 6.55838 0.83252 6.43655 1.15723 6.43655L 17.8682 6.43655L 17.8682 0.629456L 16.4468 0.629456L 15.939 0.893402L 16 0.954315C 16.1221 1.09644 16.1826 1.25888 16.1826 1.42133C 16.1826 1.50751 16.1655 1.59369 16.1343 1.67685C 16.1069 1.75043 16.0684 1.82162 16.0205 1.88834L 16 1.90863L 15.0459 3.28934C 15.0254 3.30963 15.0049 3.35025 14.9849 3.37054C 14.8833 3.47208 14.7207 3.53299 14.5586 3.53299C 14.416 3.53299 14.2739 3.4924 14.1523 3.41116C 14.1279 3.39883 14.1104 3.38647 14.0918 3.3696L 14.0508 3.32996L 12.873 2.13199C 12.8691 2.12375 12.8643 2.11636 12.8589 2.10947C 12.8506 2.09933 12.8413 2.09027 12.8325 2.08121C 12.8174 2.06598 12.8018 2.05075 12.792 2.03046C 12.7104 1.90863 12.6699 1.76651 12.6699 1.62436C 12.6699 1.46191 12.731 1.31979 12.853 1.19797C 12.8628 1.18799 12.873 1.17798 12.8857 1.168C 12.8984 1.15768 12.9136 1.14737 12.9341 1.13705L 14.335 0.182739C 14.4771 0.101532 14.6396 0.0406189 14.8022 0.0406189C 14.9849 0.0406189 15.147 0.0812073 15.269 0.223358L 15.4722 0.426392L 16.2031 0.0406189C 16.2437 0.0202942 16.3047 0 16.3657 0L 18.1929 0C 18.3555 0 18.4976 0.121826 18.4976 0.304565L 18.4976 6.41623L 18.8223 6.41623ZM 15.5332 1.52286C 15.543 1.50336 15.5527 1.48856 15.5601 1.47842L 15.5737 1.46194L 15.5737 1.44165L 14.8428 0.690369L 14.8228 0.690369C 14.8022 0.690369 14.7617 0.710663 14.7212 0.730988L 13.3403 1.66498L 13.3472 1.67282L 13.354 1.68326C 13.3579 1.68994 13.3608 1.69778 13.3608 1.7056L 14.5381 2.88327C 14.5381 2.88742 14.5386 2.89072 14.54 2.89334C 14.5415 2.89603 14.5439 2.89798 14.5469 2.89944C 14.5518 2.90201 14.5586 2.90298 14.5659 2.90335L 14.5791 2.90356L 15.5127 1.54315C 15.5332 1.54315 15.5332 1.52286 15.5332 1.52286ZM 17.5024 12.8528C 17.4619 13.2792 17.2793 13.665 17.0151 13.9289C 16.7715 14.1726 16.4263 14.335 16.061 14.335L 3.91895 14.335C 3.5332 14.335 3.20801 14.1726 2.96436 13.9289C 2.68018 13.665 2.51758 13.2792 2.47705 12.8528L 2.05078 8.71066L 17.9492 8.71066L 17.5024 12.8528ZM 19.0781 8.02719C 19.1172 8.00296 19.1538 7.97333 19.188 7.93909C 19.2891 7.83755 19.3501 7.71573 19.3501 7.57361C 19.3501 7.43146 19.2891 7.28934 19.208 7.20813C 19.1064 7.1066 18.9849 7.04568 18.8428 7.04568L 18.1929 7.04568L 1.15723 7.04568C 1.01514 7.04568 0.893555 7.1066 0.791992 7.20813C 0.69043 7.28934 0.629395 7.43146 0.629395 7.57361C 0.629395 7.71573 0.710449 7.83755 0.791992 7.93909C 0.873047 8.04062 1.01514 8.10153 1.15723 8.10153L 1.68506 8.10153L 18.2944 8.10153L 18.8223 8.10153C 18.9165 8.10153 19.002 8.07477 19.0781 8.02719Z"/>
<path id="path1_fill" d="M 1.26904 0.0913706C 1.14721 -0.0304568 0.944162 -0.0304568 0.822335 0.0913706L 0.0913706 0.80203C -0.0304568 0.923858 -0.0304568 1.1269 0.0913706 1.24873C 0.213198 1.37056 0.416244 1.37056 0.538071 1.24873L 1.26904 0.538071C 1.39086 0.416244 1.39086 0.213198 1.26904 0.0913706Z"/>
<path id="path2_fill" d="M 0.783131 0.0318623C 0.620695 -0.049356 0.437954 0.0318623 0.37704 0.194299L 0.0318623 0.965872C -0.049356 1.108 0.0318623 1.29075 0.194299 1.37196C 0.356735 1.45318 0.539477 1.37196 0.60039 1.20953L 0.945568 0.437954C 1.02679 0.275517 0.945568 0.092776 0.783131 0.0318623Z"/>
<path id="path3_fill" d="M 1.36327 0.185607C 1.30236 0.0231702 1.09931 -0.0377435 0.95718 0.0231702L 0.185607 0.368348C 0.0231702 0.429262 -0.0377435 0.632307 0.0231702 0.774439C 0.084084 0.936876 0.28713 0.99779 0.429262 0.936876L 1.20084 0.591698C 1.36327 0.530784 1.42419 0.327739 1.36327 0.185607Z"/>
</defs>
</svg>
