<svg width="22" height="20" viewBox="0 0 22 20" version="1.1" xmlns="http://www.w3.org/2000/svg" xmlns:xlink="http://www.w3.org/1999/xlink">
<title>bed</title>
<desc>Created using Figma</desc>
<g id="Canvas" transform="translate(-6771 273)">
<g id="bed">
<g id="Shape">
<use xlink:href="#path0_fill" transform="translate(6772 -271.987)"/>
<use xlink:href="#path1_stroke" transform="translate(6772 -271.987)" fill="#FFFFFF"/>
</g>
</g>
</g>
<defs>
<path id="path0_fill" fill-rule="evenodd" d="M 19.957 12.4973C 19.9531 12.5388 19.9434 12.5792 19.9287 12.6178C 19.9409 12.6717 19.9502 12.7265 19.9556 12.7826L 19.96 12.8373L 19.9609 12.8914L 19.9609 16.2183L 19.9609 17.8817C 19.9609 18.1113 19.7749 18.2976 19.5454 18.2976L 17.8818 18.2976C 17.6523 18.2976 17.4658 18.1113 17.4658 17.8817L 17.4658 16.6342L 2.49512 16.6342L 2.49512 17.8817C 2.49512 18.1113 2.30859 18.2976 2.0791 18.2976L 0.416016 18.2976C 0.186523 18.2976 0 18.1113 0 17.8817L 0 16.2183L 0 12.8914C 0 12.7967 0.0126953 12.706 0.0322266 12.6178C 0.015625 12.5735 0.00488281 12.5269 0.00292969 12.4794L 0.00244141 12.4569C 0.00244141 12.4437 0.00341797 12.4304 0.00488281 12.4171C 0.0078125 12.3959 0.012207 12.3746 0.019043 12.3533L 1.66357 7.00964L 1.66357 2.07925C 1.66357 0.933167 2.5957 0 3.74268 0L 16.2183 0C 17.3652 0 18.2974 0.933167 18.2974 2.07925L 18.2974 7.00958L 19.9419 12.3533C 19.9463 12.3677 19.9497 12.3821 19.9521 12.3965L 19.9561 12.4228L 19.9585 12.4518L 19.958 12.4821L 19.957 12.4973ZM 3.74268 0.831696C 3.05469 0.831696 2.49512 1.39142 2.49512 2.07925L 2.49512 6.65366L 3.62549 6.65366L 4.01318 5.10416C 4.15283 4.54858 4.65088 4.15933 5.22412 4.15933L 7.90137 4.15933C 8.58887 4.15933 9.14893 4.71906 9.14893 5.40689L 9.14893 6.65366L 10.812 6.65366L 10.812 5.40607C 10.812 4.71823 11.3721 4.15851 12.0596 4.15851L 14.7368 4.15851C 15.3101 4.15851 15.8081 4.54694 15.9482 5.10336L 16.3354 6.65366L 17.4658 6.65366L 17.4658 2.07925C 17.4658 1.39142 16.9062 0.831696 16.2183 0.831696L 3.74268 0.831696ZM 15.4814 7.32565C 15.4019 7.42712 15.2817 7.48532 15.1528 7.48532L 12.0601 7.48532C 11.8311 7.48532 11.644 7.29901 11.644 7.06946L 11.644 5.40607C 11.644 5.17651 11.8311 4.9902 12.0601 4.9902L 14.7378 4.9902C 14.9292 4.9902 15.0947 5.11914 15.1416 5.3046L 15.5571 6.96802C 15.5889 7.0936 15.5615 7.22333 15.4814 7.32565ZM 8.31787 7.06534L 8.31787 5.4061C 8.31787 5.17654 8.13086 4.99023 7.90234 4.99026L 5.2251 4.99026C 5.03271 4.99026 4.86719 5.12003 4.8208 5.30466L 4.40479 6.96808C 4.37354 7.09283 4.40088 7.22339 4.48047 7.32571C 4.5127 7.36673 4.55127 7.40067 4.59424 7.42654C 4.60986 7.43597 4.62646 7.44434 4.64355 7.45157C 4.6582 7.45798 4.67334 7.46353 4.68896 7.46817C 4.72754 7.47949 4.76758 7.48538 4.80908 7.48538L 7.90234 7.48538C 8.13037 7.48538 8.31641 7.29993 8.31738 7.06952L 8.31787 7.06534ZM 2.38623 7.48535L 3.63818 7.48535C 3.68213 7.61011 3.73975 7.72989 3.82373 7.83798C 4.06299 8.1424 4.42139 8.31705 4.80811 8.31705L 7.90137 8.31705C 8.44287 8.31705 8.90039 7.96774 9.07227 7.48535L 10.8887 7.48535C 11.061 7.9686 11.5186 8.31705 12.0601 8.31705L 15.1533 8.31705C 15.54 8.31705 15.8975 8.1424 16.1372 7.83798C 16.1685 7.79825 16.1958 7.75668 16.2202 7.71375C 16.2617 7.64078 16.2944 7.5639 16.3223 7.48535L 17.5752 7.48535L 18.8594 11.6589C 18.811 11.6531 18.7637 11.6439 18.7139 11.6439L 1.24756 11.6439C 1.21094 11.6439 1.17529 11.6489 1.14014 11.6539L 1.10303 11.6589L 2.38623 7.48535ZM 0.831543 17.4659L 1.66309 17.4659L 1.66309 16.6342L 0.831543 16.6342L 0.831543 17.4659ZM 18.2979 17.4659L 18.2979 16.6342L 19.1294 16.6342L 19.1294 17.4659L 18.2979 17.4659ZM 0.831543 15.8025L 19.1294 15.8025L 19.1294 12.8914C 19.1294 12.6619 18.9419 12.4756 18.7134 12.4756L 1.24756 12.4756C 1.01855 12.4756 0.831543 12.6619 0.831543 12.8914L 0.831543 15.8025Z"/>
<path id="path1_stroke" d="M 19.9287 12.6178L 19.8352 12.5824L 19.8245 12.6105L 19.8312 12.6399L 19.9287 12.6178ZM 19.957 12.4973L 20.0566 12.5067L 20.0568 12.5037L 19.957 12.4973ZM 19.9556 12.7826L 20.0553 12.7746L 20.0551 12.7731L 19.9556 12.7826ZM 19.96 12.8373L 20.0601 12.8355L 20.0596 12.8293L 19.96 12.8373ZM 19.9609 12.8914L 20.061 12.8914L 20.0609 12.8896L 19.9609 12.8914ZM 17.4658 16.6342L 17.5658 16.6342L 17.5658 16.5342L 17.4658 16.5342L 17.4658 16.6342ZM 2.49512 16.6342L 2.49512 16.5342L 2.39512 16.5342L 2.39512 16.6342L 2.49512 16.6342ZM 0.0322266 12.6178L 0.12986 12.6395L 0.136267 12.6105L 0.125886 12.5828L 0.0322266 12.6178ZM 0.00292969 12.4794L -0.0970655 12.4816L -0.096986 12.4835L 0.00292969 12.4794ZM 0.00244141 12.4569L -0.0975822 12.4569L -0.097535 12.4591L 0.00244141 12.4569ZM 0.00488281 12.4171L -0.094213 12.4034L -0.0945194 12.4062L 0.00488281 12.4171ZM 0.019043 12.3533L 0.114255 12.3839L 0.114619 12.3827L 0.019043 12.3533ZM 1.66357 7.00964L 1.75915 7.03906L 1.76357 7.02468L 1.76357 7.00964L 1.66357 7.00964ZM 18.2974 7.00958L 18.1974 7.00958L 18.1974 7.02462L 18.2018 7.039L 18.2974 7.00958ZM 19.9419 12.3533L 20.0375 12.3242L 20.0375 12.3239L 19.9419 12.3533ZM 19.9521 12.3965L 20.0511 12.3818L 20.0507 12.3797L 19.9521 12.3965ZM 19.9561 12.4228L 20.0559 12.4144L 20.055 12.4081L 19.9561 12.4228ZM 19.9585 12.4518L 20.059 12.4534L 20.0581 12.4434L 19.9585 12.4518ZM 19.958 12.4821L 20.0579 12.4885L 20.058 12.4837L 19.958 12.4821ZM 2.49512 6.65366L 2.39512 6.65366L 2.39512 6.75366L 2.49512 6.75366L 2.49512 6.65366ZM 3.62549 6.65366L 3.62549 6.75366L 3.70355 6.75366L 3.7225 6.67793L 3.62549 6.65366ZM 4.01318 5.10416L 3.9162 5.07978L 3.91617 5.07988L 4.01318 5.10416ZM 9.14893 6.65366L 9.04893 6.65366L 9.04893 6.75366L 9.14893 6.75366L 9.14893 6.65366ZM 10.812 6.65366L 10.812 6.75366L 10.912 6.75366L 10.912 6.65366L 10.812 6.65366ZM 15.9482 5.10336L 16.0453 5.07913L 16.0452 5.07894L 15.9482 5.10336ZM 16.3354 6.65366L 16.2384 6.67789L 16.2574 6.75366L 16.3354 6.75366L 16.3354 6.65366ZM 17.4658 6.65366L 17.4658 6.75366L 17.5658 6.75366L 17.5658 6.65366L 17.4658 6.65366ZM 15.4814 7.32565L 15.5601 7.38737L 15.5602 7.38728L 15.4814 7.32565ZM 15.1416 5.3046L 15.2386 5.28036L 15.2386 5.28009L 15.1416 5.3046ZM 15.5571 6.96802L 15.4601 6.99225L 15.4602 6.99252L 15.5571 6.96802ZM 8.31787 7.06534L 8.41787 7.07702L 8.41787 7.06534L 8.31787 7.06534ZM 7.90234 4.99026L 7.90234 5.09026L 7.90236 5.09026L 7.90234 4.99026ZM 4.8208 5.30466L 4.72381 5.28029L 4.72379 5.28039L 4.8208 5.30466ZM 4.40479 6.96808L 4.50179 6.99238L 4.5018 6.99234L 4.40479 6.96808ZM 4.48047 7.32571L 4.40153 7.38711L 4.40184 7.3875L 4.48047 7.32571ZM 4.59424 7.42654L 4.64591 7.34093L 4.64583 7.34088L 4.59424 7.42654ZM 4.64355 7.45157L 4.68364 7.35995L 4.68253 7.35948L 4.64355 7.45157ZM 4.68896 7.46817L 4.6605 7.56404L 4.6608 7.56412L 4.68896 7.46817ZM 8.31738 7.06952L 8.21743 7.05785L 8.21738 7.0691L 8.31738 7.06952ZM 3.63818 7.48535L 3.7325 7.45213L 3.70898 7.38535L 3.63818 7.38535L 3.63818 7.48535ZM 2.38623 7.48535L 2.38623 7.38535L 2.31236 7.38535L 2.29065 7.45596L 2.38623 7.48535ZM 3.82373 7.83798L 3.74476 7.89934L 3.74511 7.89978L 3.82373 7.83798ZM 9.07227 7.48535L 9.07227 7.38535L 9.00174 7.38535L 8.97807 7.45179L 9.07227 7.48535ZM 10.8887 7.48535L 10.9829 7.45176L 10.9592 7.38535L 10.8887 7.38535L 10.8887 7.48535ZM 16.1372 7.83798L 16.2158 7.89985L 16.2158 7.8998L 16.1372 7.83798ZM 16.2202 7.71375L 16.1333 7.6643L 16.1333 7.66432L 16.2202 7.71375ZM 16.3223 7.48535L 16.3223 7.38535L 16.2516 7.38535L 16.228 7.45195L 16.3223 7.48535ZM 17.5752 7.48535L 17.6708 7.45594L 17.6491 7.38535L 17.5752 7.38535L 17.5752 7.48535ZM 18.8594 11.6589L 18.8475 11.7582L 19.0002 11.7765L 18.955 11.6295L 18.8594 11.6589ZM 1.14014 11.6539L 1.1535 11.753L 1.15406 11.7529L 1.14014 11.6539ZM 1.10303 11.6589L 1.00744 11.6295L 0.961515 11.7789L 1.11639 11.758L 1.10303 11.6589ZM 1.66309 17.4659L 1.66309 17.5659L 1.76309 17.5659L 1.76309 17.4659L 1.66309 17.4659ZM 0.831543 17.4659L 0.731543 17.4659L 0.731543 17.5659L 0.831543 17.5659L 0.831543 17.4659ZM 1.66309 16.6342L 1.76309 16.6342L 1.76309 16.5342L 1.66309 16.5342L 1.66309 16.6342ZM 0.831543 16.6342L 0.831543 16.5342L 0.731543 16.5342L 0.731543 16.6342L 0.831543 16.6342ZM 18.2979 16.6342L 18.2979 16.5342L 18.1979 16.5342L 18.1979 16.6342L 18.2979 16.6342ZM 18.2979 17.4659L 18.1979 17.4659L 18.1979 17.5659L 18.2979 17.5659L 18.2979 17.4659ZM 19.1294 16.6342L 19.2294 16.6342L 19.2294 16.5342L 19.1294 16.5342L 19.1294 16.6342ZM 19.1294 17.4659L 19.1294 17.5659L 19.2294 17.5659L 19.2294 17.4659L 19.1294 17.4659ZM 19.1294 15.8025L 19.1294 15.9025L 19.2294 15.9025L 19.2294 15.8025L 19.1294 15.8025ZM 0.831543 15.8025L 0.731543 15.8025L 0.731543 15.9025L 0.831543 15.9025L 0.831543 15.8025ZM 20.0222 12.6533C 20.0389 12.6088 20.0518 12.5553 20.0566 12.5067L 19.8575 12.4879C 19.8545 12.5223 19.8478 12.5497 19.8352 12.5824L 20.0222 12.6533ZM 20.0551 12.7731C 20.0493 12.7134 20.039 12.6523 20.0262 12.5957L 19.8312 12.6399C 19.8428 12.6911 19.8511 12.7396 19.856 12.7921L 20.0551 12.7731ZM 20.0596 12.8293L 20.0552 12.7746L 19.8559 12.7906L 19.8603 12.8453L 20.0596 12.8293ZM 20.0609 12.8896L 20.0599 12.8355L 19.86 12.8391L 19.861 12.8933L 20.0609 12.8896ZM 20.0609 16.2183L 20.0609 12.8914L 19.8609 12.8914L 19.8609 16.2183L 20.0609 16.2183ZM 20.0609 17.8817L 20.0609 16.2183L 19.8609 16.2183L 19.8609 17.8817L 20.0609 17.8817ZM 19.5454 18.3976C 19.8302 18.3976 20.0609 18.1664 20.0609 17.8817L 19.8609 17.8817C 19.8609 18.0561 19.7196 18.1976 19.5454 18.1976L 19.5454 18.3976ZM 17.8818 18.3976L 19.5454 18.3976L 19.5454 18.1976L 17.8818 18.1976L 17.8818 18.3976ZM 17.3658 17.8817C 17.3658 18.1666 17.5972 18.3976 17.8818 18.3976L 17.8818 18.1976C 17.7075 18.1976 17.5658 18.056 17.5658 17.8817L 17.3658 17.8817ZM 17.3658 16.6342L 17.3658 17.8817L 17.5658 17.8817L 17.5658 16.6342L 17.3658 16.6342ZM 2.49512 16.7342L 17.4658 16.7342L 17.4658 16.5342L 2.49512 16.5342L 2.49512 16.7342ZM 2.59512 17.8817L 2.59512 16.6342L 2.39512 16.6342L 2.39512 17.8817L 2.59512 17.8817ZM 2.0791 18.3976C 2.36377 18.3976 2.59512 18.1666 2.59512 17.8817L 2.39512 17.8817C 2.39512 18.056 2.25342 18.1976 2.0791 18.1976L 2.0791 18.3976ZM 0.416016 18.3976L 2.0791 18.3976L 2.0791 18.1976L 0.416016 18.1976L 0.416016 18.3976ZM -0.1 17.8817C -0.1 18.1666 0.131352 18.3976 0.416016 18.3976L 0.416016 18.1976C 0.241695 18.1976 0.1 18.056 0.1 17.8817L -0.1 17.8817ZM -0.1 16.2183L -0.1 17.8817L 0.1 17.8817L 0.1 16.2183L -0.1 16.2183ZM -0.1 12.8914L -0.1 16.2183L 0.1 16.2183L 0.1 12.8914L -0.1 12.8914ZM -0.0654064 12.5962C -0.0857147 12.6882 -0.0997582 12.7897 -0.1 12.8914L 0.1 12.8914C 0.0997582 12.8036 0.111105 12.7238 0.12986 12.6395L -0.0654064 12.5962ZM -0.096986 12.4835C -0.0942212 12.5403 -0.0801296 12.6023 -0.0614328 12.6529L 0.125886 12.5828C 0.11138 12.5446 0.103987 12.5136 0.102845 12.4753L -0.096986 12.4835ZM -0.097535 12.4591L -0.0970468 12.4816L 0.102906 12.4772L 0.102418 12.4547L -0.097535 12.4591ZM -0.0945194 12.4062C -0.0961645 12.4213 -0.0974912 12.44 -0.0975586 12.4569L 0.102441 12.4569C 0.102374 12.4474 0.103 12.4395 0.104285 12.428L -0.0945194 12.4062ZM -0.0761613 12.3227C -0.0845036 12.3492 -0.0907383 12.3789 -0.094174 12.4034L 0.10394 12.4308C 0.106363 12.4129 0.108918 12.4 0.114247 12.3839L -0.0761613 12.3227ZM 1.568 6.98023L -0.0765333 12.3239L 0.114619 12.3827L 1.75915 7.03906L 1.568 6.98023ZM 1.56357 2.07925L 1.56357 7.00964L 1.76357 7.00964L 1.76357 2.07925L 1.56357 2.07925ZM 3.74268 -0.1C 2.54044 -0.1 1.56357 0.877975 1.56357 2.07925L 1.76357 2.07925C 1.76357 0.988358 2.65097 0.1 3.74268 0.1L 3.74268 -0.1ZM 16.2183 -0.1L 3.74268 -0.1L 3.74268 0.1L 16.2183 0.1L 16.2183 -0.1ZM 18.3974 2.07925C 18.3974 0.877975 17.4205 -0.1 16.2183 -0.1L 16.2183 0.1C 17.31 0.1 18.1974 0.988358 18.1974 2.07925L 18.3974 2.07925ZM 18.3974 7.00958L 18.3974 2.07925L 18.1974 2.07925L 18.1974 7.00958L 18.3974 7.00958ZM 20.0375 12.3239L 18.3929 6.98017L 18.2018 7.039L 19.8463 12.3827L 20.0375 12.3239ZM 20.0507 12.3797C 20.0477 12.3622 20.0428 12.3416 20.0375 12.3242L 19.8462 12.3825C 19.8498 12.3939 19.8517 12.4021 19.8536 12.4133L 20.0507 12.3797ZM 20.055 12.4081L 20.0511 12.3818L 19.8532 12.4112L 19.8571 12.4375L 20.055 12.4081ZM 20.0581 12.4434L 20.0557 12.4144L 19.8564 12.4312L 19.8588 12.4601L 20.0581 12.4434ZM 20.058 12.4837L 20.0585 12.4534L 19.8585 12.4501L 19.858 12.4805L 20.058 12.4837ZM 20.0568 12.5037L 20.0578 12.4885L 19.8582 12.4757L 19.8572 12.4909L 20.0568 12.5037ZM 2.59512 2.07925C 2.59512 1.44664 3.10992 0.931696 3.74268 0.931696L 3.74268 0.731696C 2.99945 0.731696 2.39512 1.3362 2.39512 2.07925L 2.59512 2.07925ZM 2.59512 6.65366L 2.59512 2.07925L 2.39512 2.07925L 2.39512 6.65366L 2.59512 6.65366ZM 3.62549 6.55366L 2.49512 6.55366L 2.49512 6.75366L 3.62549 6.75366L 3.62549 6.55366ZM 3.91617 5.07988L 3.52848 6.62938L 3.7225 6.67793L 4.11019 5.12843L 3.91617 5.07988ZM 5.22412 4.05933C 4.60495 4.05933 4.067 4.47984 3.9162 5.07978L 4.11017 5.12853C 4.23866 4.61733 4.69681 4.25933 5.22412 4.25933L 5.22412 4.05933ZM 7.90137 4.05933L 5.22412 4.05933L 5.22412 4.25933L 7.90137 4.25933L 7.90137 4.05933ZM 9.24893 5.40689C 9.24893 4.66381 8.64408 4.05933 7.90137 4.05933L 7.90137 4.25933C 8.53366 4.25933 9.04893 4.7743 9.04893 5.40689L 9.24893 5.40689ZM 9.24893 6.65366L 9.24893 5.40689L 9.04893 5.40689L 9.04893 6.65366L 9.24893 6.65366ZM 10.812 6.55366L 9.14893 6.55366L 9.14893 6.75366L 10.812 6.75366L 10.812 6.55366ZM 10.712 5.40607L 10.712 6.65366L 10.912 6.65366L 10.912 5.40607L 10.712 5.40607ZM 12.0596 4.05851C 11.3169 4.05851 10.712 4.66299 10.712 5.40607L 10.912 5.40607C 10.912 4.77348 11.4273 4.25851 12.0596 4.25851L 12.0596 4.05851ZM 14.7368 4.05851L 12.0596 4.05851L 12.0596 4.25851L 14.7368 4.25851L 14.7368 4.05851ZM 16.0452 5.07894C 15.8939 4.47814 15.3559 4.05851 14.7368 4.05851L 14.7368 4.25851C 15.2642 4.25851 15.7223 4.61574 15.8513 5.12779L 16.0452 5.07894ZM 16.4325 6.62942L 16.0453 5.07913L 15.8512 5.12759L 16.2384 6.67789L 16.4325 6.62942ZM 17.4658 6.55366L 16.3354 6.55366L 16.3354 6.75366L 17.4658 6.75366L 17.4658 6.55366ZM 17.3658 2.07925L 17.3658 6.65366L 17.5658 6.65366L 17.5658 2.07925L 17.3658 2.07925ZM 16.2183 0.931696C 16.851 0.931696 17.3658 1.44664 17.3658 2.07925L 17.5658 2.07925C 17.5658 1.3362 16.9615 0.731696 16.2183 0.731696L 16.2183 0.931696ZM 3.74268 0.931696L 16.2183 0.931696L 16.2183 0.731696L 3.74268 0.731696L 3.74268 0.931696ZM 15.1528 7.58532C 15.3123 7.58532 15.4615 7.51311 15.5601 7.38737L 15.4028 7.26394C 15.3422 7.34114 15.2511 7.38532 15.1528 7.38532L 15.1528 7.58532ZM 12.0601 7.58532L 15.1528 7.58532L 15.1528 7.38532L 12.0601 7.38532L 12.0601 7.58532ZM 11.544 7.06946C 11.544 7.35437 11.776 7.58532 12.0601 7.58532L 12.0601 7.38532C 11.8861 7.38532 11.744 7.24365 11.744 7.06946L 11.544 7.06946ZM 11.544 5.40607L 11.544 7.06946L 11.744 7.06946L 11.744 5.40607L 11.544 5.40607ZM 12.0601 4.8902C 11.776 4.8902 11.544 5.12115 11.544 5.40607L 11.744 5.40607C 11.744 5.23188 11.8861 5.0902 12.0601 5.0902L 12.0601 4.8902ZM 14.7378 4.8902L 12.0601 4.8902L 12.0601 5.0902L 14.7378 5.0902L 14.7378 4.8902ZM 15.2386 5.28009C 15.1805 5.05024 14.975 4.8902 14.7378 4.8902L 14.7378 5.0902C 14.8834 5.0902 15.009 5.18804 15.0447 5.3291L 15.2386 5.28009ZM 15.6541 6.94378L 15.2386 5.28036L 15.0446 5.32883L 15.4601 6.99225L 15.6541 6.94378ZM 15.5602 7.38728C 15.6593 7.26062 15.6934 7.09909 15.6541 6.94351L 15.4602 6.99252C 15.4843 7.08811 15.4637 7.18604 15.4027 7.26402L 15.5602 7.38728ZM 8.21787 5.4061L 8.21787 7.06534L 8.41787 7.06534L 8.41787 5.4061L 8.21787 5.4061ZM 7.90236 5.09026C 8.07569 5.09024 8.21787 5.23183 8.21787 5.4061L 8.41787 5.4061C 8.41787 5.12126 8.18603 4.89023 7.90233 4.89026L 7.90236 5.09026ZM 5.2251 5.09026L 7.90234 5.09026L 7.90234 4.89026L 5.2251 4.89026L 5.2251 5.09026ZM 4.91779 5.32902C 4.95299 5.18889 5.07852 5.09026 5.2251 5.09026L 5.2251 4.89026C 4.98691 4.89026 4.78138 5.05116 4.72381 5.28029L 4.91779 5.32902ZM 4.5018 6.99234L 4.91781 5.32892L 4.72379 5.28039L 4.30777 6.94382L 4.5018 6.99234ZM 4.5594 7.26432C 4.49867 7.18624 4.47801 7.08728 4.50179 6.99238L 4.30778 6.94378C 4.26906 7.09838 4.30308 7.26054 4.40153 7.38711L 4.5594 7.26432ZM 4.64583 7.34088C 4.61033 7.31997 4.58534 7.29801 4.5591 7.26393L 4.40184 7.3875C 4.44005 7.43545 4.49221 7.48136 4.54265 7.51221L 4.64583 7.34088ZM 4.68253 7.35948C 4.66847 7.35358 4.65823 7.34845 4.64591 7.34093L 4.54257 7.51216C 4.5615 7.5235 4.58446 7.53509 4.60458 7.54366L 4.68253 7.35948ZM 4.71742 7.37231C 4.70481 7.36861 4.69549 7.36519 4.68364 7.35995L 4.60347 7.54318C 4.62092 7.55077 4.64187 7.55845 4.6605 7.56403L 4.71742 7.37231ZM 4.80908 7.38538C 4.77487 7.38565 4.74895 7.38181 4.71713 7.37222L 4.6608 7.56412C 4.70613 7.57717 4.76028 7.58512 4.80908 7.58538L 4.80908 7.38538ZM 7.90234 7.38538L 4.80908 7.38538L 4.80908 7.58538L 7.90234 7.58538L 7.90234 7.38538ZM 8.21738 7.0691C 8.21664 7.24488 8.07487 7.38538 7.90234 7.38538L 7.90234 7.58538C 8.18587 7.58538 8.41617 7.35498 8.41738 7.06994L 8.21738 7.0691ZM 8.21855 7.05374L 8.21806 7.05792L 8.41671 7.08112L 8.4172 7.07694L 8.21855 7.05374ZM 3.63818 7.38535L 2.38623 7.38535L 2.38623 7.58535L 3.63818 7.58535L 3.63818 7.38535ZM 3.9027 7.77663C 3.82477 7.67724 3.77449 7.57176 3.7325 7.45213L 3.54386 7.51858C 3.58977 7.64845 3.65473 7.78254 3.74476 7.89934L 3.9027 7.77663ZM 4.80811 8.21705C 4.45218 8.21705 4.12272 8.05656 3.90235 7.77619L 3.74511 7.89978C 4.00326 8.22823 4.3906 8.41705 4.80811 8.41705L 4.80811 8.21705ZM 7.90137 8.21705L 4.80811 8.21705L 4.80811 8.41705L 7.90137 8.41705L 7.90137 8.21705ZM 8.97807 7.45179C 8.81965 7.89639 8.39845 8.21705 7.90137 8.21705L 7.90137 8.41705C 8.48729 8.41705 8.98113 8.03909 9.16646 7.51891L 8.97807 7.45179ZM 10.8887 7.38535L 9.07227 7.38535L 9.07227 7.58535L 10.8887 7.58535L 10.8887 7.38535ZM 12.0601 8.21705C 11.5629 8.21705 11.1417 7.89718 10.9829 7.45176L 10.7945 7.51895C 10.9803 8.04001 11.4742 8.41705 12.0601 8.41705L 12.0601 8.21705ZM 15.1533 8.21705L 12.0601 8.21705L 12.0601 8.41705L 15.1533 8.41705L 15.1533 8.21705ZM 16.0586 7.77611C 15.8377 8.05664 15.5091 8.21705 15.1533 8.21705L 15.1533 8.41705C 15.5709 8.41705 15.9572 8.22815 16.2158 7.89985L 16.0586 7.77611ZM 16.1333 7.66432C 16.1105 7.70446 16.0873 7.73981 16.0586 7.77616L 16.2158 7.8998C 16.2496 7.85669 16.2811 7.8089 16.3071 7.76317L 16.1333 7.66432ZM 16.228 7.45195C 16.2013 7.52761 16.1721 7.5964 16.1333 7.6643L 16.3071 7.76319C 16.3513 7.68515 16.3876 7.6002 16.4165 7.51875L 16.228 7.45195ZM 17.5752 7.38535L 16.3223 7.38535L 16.3223 7.58535L 17.5752 7.58535L 17.5752 7.38535ZM 18.955 11.6295L 17.6708 7.45594L 17.4796 7.51476L 18.7638 11.6883L 18.955 11.6295ZM 18.7139 11.7439C 18.7541 11.7435 18.7956 11.7519 18.8475 11.7582L 18.8713 11.5596C 18.8265 11.5543 18.7732 11.5444 18.7139 11.5439L 18.7139 11.7439ZM 1.24756 11.7439L 18.7139 11.7439L 18.7139 11.5439L 1.24756 11.5439L 1.24756 11.7439ZM 1.15406 11.7529C 1.18921 11.748 1.21791 11.7437 1.24756 11.7439L 1.24756 11.5439C 1.20397 11.5442 1.16138 11.5499 1.12621 11.5548L 1.15406 11.7529ZM 1.11639 11.758L 1.1535 11.753L 1.12677 11.5548L 1.08966 11.5598L 1.11639 11.758ZM 2.29065 7.45596L 1.00744 11.6295L 1.19861 11.6883L 2.48181 7.51474L 2.29065 7.45596ZM 1.66309 17.3659L 0.831543 17.3659L 0.831543 17.5659L 1.66309 17.5659L 1.66309 17.3659ZM 1.56309 16.6342L 1.56309 17.4659L 1.76309 17.4659L 1.76309 16.6342L 1.56309 16.6342ZM 0.831543 16.7342L 1.66309 16.7342L 1.66309 16.5342L 0.831543 16.5342L 0.831543 16.7342ZM 0.931543 17.4659L 0.931543 16.6342L 0.731543 16.6342L 0.731543 17.4659L 0.931543 17.4659ZM 18.1979 16.6342L 18.1979 17.4659L 18.3979 17.4659L 18.3979 16.6342L 18.1979 16.6342ZM 19.1294 16.5342L 18.2979 16.5342L 18.2979 16.7342L 19.1294 16.7342L 19.1294 16.5342ZM 19.2294 17.4659L 19.2294 16.6342L 19.0294 16.6342L 19.0294 17.4659L 19.2294 17.4659ZM 18.2979 17.5659L 19.1294 17.5659L 19.1294 17.3659L 18.2979 17.3659L 18.2979 17.5659ZM 19.1294 15.7025L 0.831543 15.7025L 0.831543 15.9025L 19.1294 15.9025L 19.1294 15.7025ZM 19.0294 12.8914L 19.0294 15.8025L 19.2294 15.8025L 19.2294 12.8914L 19.0294 12.8914ZM 18.7134 12.5756C 18.8869 12.5756 19.0294 12.7173 19.0294 12.8914L 19.2294 12.8914C 19.2294 12.6065 18.9969 12.3756 18.7134 12.3756L 18.7134 12.5756ZM 1.24756 12.5756L 18.7134 12.5756L 18.7134 12.3756L 1.24756 12.3756L 1.24756 12.5756ZM 0.931543 12.8914C 0.931543 12.7173 1.07365 12.5756 1.24756 12.5756L 1.24756 12.3756C 0.96346 12.3756 0.731543 12.6065 0.731543 12.8914L 0.931543 12.8914ZM 0.931543 15.8025L 0.931543 12.8914L 0.731543 12.8914L 0.731543 15.8025L 0.931543 15.8025Z"/>
</defs>
</svg>
