<svg width="20" height="20" viewBox="0 0 20 20" version="1.1" xmlns="http://www.w3.org/2000/svg" xmlns:xlink="http://www.w3.org/1999/xlink">
<title>door</title>
<desc>Created using Figma</desc>
<g id="Canvas" transform="translate(-6674 273)">
<g id="door">
<g id="Shape">
<use xlink:href="#path0_fill" transform="translate(6674 -273)"/>
</g>
<g id="Shape">
<use xlink:href="#path1_fill" transform="translate(6681.7 -264.008)"/>
</g>
</g>
</g>
<defs>
<path id="path0_fill" fill-rule="evenodd" d="M 16.4526 19.3543L 16.4526 0L 3.54736 0L 3.54736 19.3543L 0 19.3543L 0 20L 20 20L 20 19.3543L 16.4526 19.3543ZM 4.19287 19.3543L 4.19287 0.64566L 12.8701 0.64566L 6.12988 1.99213L 6.12988 18.0039L 12.874 19.3543L 4.19287 19.3543ZM 6.77539 17.4764L 15.8071 19.2834L 15.8071 0.716522L 6.77539 2.52362L 6.77539 17.4764Z"/>
<path id="path1_fill" fill-rule="evenodd" d="M 0 1.00787C 0 0.452759 0.452637 0 1.00781 0C 1.56299 0 2.01562 0.452759 2.01562 1.00787C 2.01562 1.56299 1.56299 2.01575 1.00781 2.01575C 0.452637 2.01575 0 1.56299 0 1.00787ZM 0.645508 1.00787C 0.645508 1.20865 0.807129 1.37006 1.00781 1.37006C 1.2085 1.37006 1.37012 1.20865 1.37012 1.00787C 1.37012 0.807068 1.2085 0.64566 1.00781 0.64566C 0.807129 0.64566 0.645508 0.807068 0.645508 1.00787Z"/>
</defs>
</svg>
