<svg width="22" height="16" viewBox="0 0 22 16" version="1.1" xmlns="http://www.w3.org/2000/svg" xmlns:xlink="http://www.w3.org/1999/xlink">
<title>if_guest_1642861</title>
<desc>Created using Figma</desc>
<g id="Canvas" transform="translate(-6562 271)">
<g id="if_guest_1642861">
<g id="Oval">
<use xlink:href="#path0_stroke" transform="translate(6565.69 -266.712)"/>
</g>
<g id="Shape">
<use xlink:href="#path1_stroke" transform="translate(6563.05 -260.718)"/>
</g>
<g id="Group">
<g id="Shape">
<use xlink:href="#path2_stroke" transform="translate(6569.99 -262.19)"/>
</g>
<g id="Shape">
<use xlink:href="#path3_stroke" transform="translate(6569.99 -262.19)"/>
</g>
<g id="Oval">
<use xlink:href="#path4_stroke" transform="translate(6573.35 -269.955)"/>
</g>
</g>
</g>
</g>
<defs>
<path id="path0_stroke" d="M 2.44748 5.19496C 3.96487 5.19496 5.19496 3.96487 5.19496 2.44748L 4.59495 2.44748C 4.59495 3.6335 3.6335 4.59495 2.44748 4.59495L 2.44748 5.19496ZM 5.19496 2.44748C 5.19496 0.930088 3.96487 -0.3 2.44748 -0.3L 2.44748 0.3C 3.6335 0.3 4.59495 1.26146 4.59495 2.44748L 5.19496 2.44748ZM 2.44748 -0.3C 0.930088 -0.3 -0.3 0.930088 -0.3 2.44748L 0.3 2.44748C 0.3 1.26146 1.26146 0.3 2.44748 0.3L 2.44748 -0.3ZM -0.3 2.44748C -0.3 3.96487 0.930088 5.19496 2.44748 5.19496L 2.44748 4.59495C 1.26146 4.59495 0.3 3.6335 0.3 2.44748L -0.3 2.44748Z"/>
<path id="path1_stroke" d="M 6.98439 0.677922C 7.13668 0.743168 7.31304 0.672597 7.37828 0.520299C 7.44353 0.368001 7.37296 0.191647 7.22066 0.126402L 6.98439 0.677922ZM 0.120631 3.88234L 0.411675 3.9551L 0.411914 3.95413L 0.120631 3.88234ZM 0.420811 5.13225L 0.223029 5.35782C 0.277746 5.4058 0.348038 5.43225 0.420811 5.43225L 0.420811 5.13225ZM 5.62189 5.43225C 5.78758 5.43225 5.92189 5.29794 5.92189 5.13225C 5.92189 4.96657 5.78758 4.83225 5.62189 4.83225L 5.62189 5.43225ZM 7.22066 0.126402C 6.57749 -0.147462 5.84091 -0.298468 5.08351 -0.3L 5.08351 0.3C 5.78035 0.298468 6.39819 0.42512 6.98439 0.677922L 7.22066 0.126402ZM 5.08351 -0.3C 2.54238 -0.3 0.41118 1.44984 -0.170653 3.81055L 0.411914 3.95413C 0.92918 1.85539 2.82465 0.3 5.08351 0.3L 5.08351 -0.3ZM -0.170412 3.80958C -0.219257 4.00919 -0.293703 4.19345 -0.3 4.59063L 0.3 4.59063C 0.293703 4.31574 0.348806 4.20234 0.411673 3.9551L -0.170412 3.80958ZM -0.3 4.59063C -0.3 4.8434 -0.210242 5.0155 -0.0662754 5.14383C -0.00997358 5.19299 0.0528452 5.23549 0.101086 5.2679C 0.14943 5.30037 0.185823 5.32445 0.223029 5.35782L 0.618593 4.90668C 0.553051 4.84996 0.485469 4.8033 0.435645 4.76983C 0.385719 4.7363 0.356179 4.71766 0.332965 4.69594C 0.309611 4.67628 0.315176 4.68598 0.310833 4.66948C 0.308158 4.66348 0.3 4.64227 0.3 4.59063L -0.3 4.59063ZM 0.420811 5.43225L 5.62189 5.43225L 5.62189 4.83225L 0.420811 4.83225L 0.420811 5.43225Z"/>
<path id="path2_stroke" d="M 13.2521 5.72674C 13.2433 5.56128 13.102 5.43431 12.9366 5.44313C 12.7711 5.45195 12.6441 5.59322 12.6529 5.75867L 13.2521 5.72674ZM 12.9555 5.87405L 13.2555 5.87405L 13.2555 5.87333L 12.9555 5.87405ZM 12.4205 6.60396L 12.4205 6.90396C 12.4815 6.90396 12.541 6.8854 12.5911 6.85074L 12.4205 6.60396ZM 0.536126 6.60396L 0.366045 6.85109C 0.416079 6.88553 0.475387 6.90396 0.536126 6.90396L 0.536126 6.60396ZM 0.153874 4.96559L 0.444892 5.03846L 0.445158 5.03737L 0.153874 4.96559ZM 12.0943 3.86607C 12.1652 4.01581 12.3441 4.07971 12.4938 4.00878C 12.6436 3.93786 12.7075 3.75898 12.6365 3.60924L 12.0943 3.86607ZM 12.6529 5.75867C 12.6546 5.78871 12.6554 5.83983 12.6555 5.87478L 13.2555 5.87333C 13.2554 5.83404 13.2542 5.76768 13.2521 5.72674L 12.6529 5.75867ZM 12.6555 5.87405C 12.6555 6.03322 12.5311 6.16284 12.2499 6.35719L 12.5911 6.85074C 12.8313 6.68473 13.2555 6.38912 13.2555 5.87405L 12.6555 5.87405ZM 12.4205 6.30396L 0.536126 6.30396L 0.536126 6.90396L 12.4205 6.90396L 12.4205 6.30396ZM 0.706207 6.35684C 0.564009 6.25934 0.455464 6.20169 0.387197 6.12516C 0.338786 6.07429 0.3 6.01084 0.3 5.87405L -0.3 5.87405C -0.3 6.16538 -0.201624 6.37679 -0.0474218 6.53881C 0.0869238 6.67516 0.246442 6.76841 0.366045 6.85109L 0.706207 6.35684ZM 0.3 5.87405C 0.294035 5.50538 0.367154 5.34524 0.444889 5.03845L -0.137142 4.89272C -0.201929 5.15512 -0.294035 5.38633 -0.3 5.87405L 0.3 5.87405ZM 0.445158 5.03737C 1.11337 2.32601 3.56206 0.3 6.47775 0.3L 6.47775 -0.3C 3.27722 -0.3 0.594738 1.923 -0.137411 4.8938L 0.445158 5.03737ZM 6.47775 0.3C 8.95619 0.3 11.0972 1.76087 12.0943 3.86607L 12.6365 3.60924C 11.5446 1.30381 9.19822 -0.3 6.47775 -0.3L 6.47775 0.3Z"/>
<path id="path3_stroke" d="M 0.302548 5.75867C 0.311366 5.59322 0.184391 5.45195 0.0189402 5.44313C -0.14651 5.43431 -0.287783 5.56128 -0.296602 5.72674L 0.302548 5.75867ZM 0 5.87405L -0.3 5.87333L -0.3 5.87405L 0 5.87405ZM 0.534955 6.60396L 0.364356 6.85074C 0.414495 6.8854 0.474002 6.90396 0.534955 6.90396L 0.534955 6.60396ZM 12.4194 6.60396L 12.4194 6.90396C 12.4801 6.90396 12.5394 6.88553 12.5895 6.85109L 12.4194 6.60396ZM 12.8016 4.96559L 12.5103 5.03737L 12.5106 5.03845L 12.8016 4.96559ZM 0.318963 3.60924C 0.248042 3.75898 0.311937 3.93786 0.461676 4.00878C 0.611415 4.07971 0.790296 4.01581 0.861217 3.86607L 0.318963 3.60924ZM -0.296602 5.72674C -0.298735 5.76768 -0.299896 5.83404 -0.299999 5.87333L 0.299999 5.87478C 0.300076 5.83983 0.300897 5.78871 0.302548 5.75867L -0.296602 5.72674ZM -0.3 5.87405C -0.3 6.38912 0.124232 6.68473 0.364356 6.85074L 0.705554 6.35719C 0.424417 6.16284 0.3 6.03322 0.3 5.87405L -0.3 5.87405ZM 0.534955 6.90396L 12.4194 6.90396L 12.4194 6.30396L 0.534955 6.30396L 0.534955 6.90396ZM 12.5895 6.85109C 12.7091 6.76841 12.8686 6.67516 13.0029 6.53881C 13.1571 6.37679 13.2555 6.16538 13.2555 5.87405L 12.6555 5.87405C 12.6555 6.01084 12.6167 6.07429 12.5683 6.12516C 12.5 6.20169 12.3915 6.25934 12.2493 6.35684L 12.5895 6.85109ZM 13.2555 5.87405C 13.2495 5.38633 13.1574 5.15512 13.0926 4.89272L 12.5106 5.03845C 12.5883 5.34524 12.6615 5.50538 12.6555 5.87405L 13.2555 5.87405ZM 13.0929 4.8938C 12.3608 1.923 9.67828 -0.3 6.47775 -0.3L 6.47775 0.3C 9.39343 0.3 11.8421 2.32601 12.5103 5.03737L 13.0929 4.8938ZM 6.47775 -0.3C 3.75728 -0.3 1.41089 1.30381 0.318963 3.60924L 0.861217 3.86607C 1.8583 1.76087 3.9993 0.3 6.47775 0.3L 6.47775 -0.3Z"/>
<path id="path4_stroke" d="M 3.11856 6.53712C 5.00658 6.53712 6.53712 5.00658 6.53712 3.11856L 5.93712 3.11856C 5.93712 4.67521 4.67521 5.93712 3.11856 5.93712L 3.11856 6.53712ZM 6.53712 3.11856C 6.53712 1.23054 5.00658 -0.3 3.11856 -0.3L 3.11856 0.3C 4.67521 0.3 5.93712 1.56191 5.93712 3.11856L 6.53712 3.11856ZM 3.11856 -0.3C 1.23054 -0.3 -0.3 1.23054 -0.3 3.11856L 0.3 3.11856C 0.3 1.56191 1.56191 0.3 3.11856 0.3L 3.11856 -0.3ZM -0.3 3.11856C -0.3 5.00658 1.23054 6.53712 3.11856 6.53712L 3.11856 5.93712C 1.56191 5.93712 0.3 4.67521 0.3 3.11856L -0.3 3.11856Z"/>
</defs>
</svg>
