<svg width="64" height="40" viewBox="0 0 64 40" version="1.1" xmlns="http://www.w3.org/2000/svg" xmlns:xlink="http://www.w3.org/1999/xlink">
<title>btn</title>
<desc>Created using Figma</desc>
<g id="Canvas" transform="translate(-1935 -2137)">
<g id="btn">
<g id="Rectangle 7">
<use xlink:href="#path0_fill" transform="translate(1935 2137)" fill="#484848" fill-opacity="0.08"/>
<mask id="mask0_outline_ins">
<use xlink:href="#path0_fill" fill="white" transform="translate(1935 2137)"/>
</mask>
<g mask="url(#mask0_outline_ins)">
<use xlink:href="#path1_stroke_2x" transform="translate(1935 2137)" fill="#484848" fill-opacity="0.3"/>
</g>
</g>
<g id="Rectangle 9">
<use xlink:href="#path2_fill" transform="translate(1935 2137)" fill="#FFFFFF"/>
<mask id="mask1_outline_ins">
<use xlink:href="#path2_fill" fill="white" transform="translate(1935 2137)"/>
</mask>
<g mask="url(#mask1_outline_ins)">
<use xlink:href="#path3_stroke_2x" transform="translate(1935 2137)" fill="#484848" fill-opacity="0.3"/>
</g>
</g>
<g id="plus">
<g id="Rectangle-path">
<use xlink:href="#path4_fill" transform="matrix(0.707107 0.707107 -0.707107 0.707107 1950.49 2150.23)" fill="#484848"/>
</g>
<g id="Rectangle-path">
<use xlink:href="#path5_fill" transform="matrix(0.707107 0.707107 -0.707107 0.707107 1959.54 2150.23)" fill="#484848"/>
</g>
</g>
</g>
</g>
<defs>
<path id="path0_fill" fill-rule="evenodd" d="M 0 20C 0 8.9543 8.9543 0 20 0L 44 0C 55.0457 0 64 8.9543 64 20C 64 31.0457 55.0457 40 44 40L 20 40C 8.9543 40 0 31.0457 0 20Z"/>
<path id="path1_stroke_2x" d="M 20 1L 44 1L 44 -1L 20 -1L 20 1ZM 44 39L 20 39L 20 41L 44 41L 44 39ZM 20 39C 9.50659 39 1 30.4934 1 20L -1 20C -1 31.598 8.40202 41 20 41L 20 39ZM 63 20C 63 30.4934 54.4934 39 44 39L 44 41C 55.598 41 65 31.598 65 20L 63 20ZM 44 1C 54.4934 1 63 9.50659 63 20L 65 20C 65 8.40202 55.598 -1 44 -1L 44 1ZM 20 -1C 8.40202 -1 -1 8.40202 -1 20L 1 20C 1 9.50659 9.50659 1 20 1L 20 -1Z"/>
<path id="path2_fill" fill-rule="evenodd" d="M 0 20C 0 8.9543 8.9543 0 20 0C 31.0457 0 40 8.9543 40 20C 40 31.0457 31.0457 40 20 40C 8.9543 40 0 31.0457 0 20Z"/>
<path id="path3_stroke_2x" d="M 20 39C 9.50659 39 1 30.4934 1 20L -1 20C -1 31.598 8.40202 41 20 41L 20 39ZM 39 20C 39 30.4934 30.4934 39 20 39L 20 41C 31.598 41 41 31.598 41 20L 39 20ZM 20 1C 30.4934 1 39 9.50659 39 20L 41 20C 41 8.40202 31.598 -1 20 -1L 20 1ZM 20 -1C 8.40202 -1 -1 8.40202 -1 20L 1 20C 1 9.50659 9.50659 1 20 1L 20 -1Z"/>
<path id="path4_fill" d="M 0 1.28C 0 0.573076 0.573076 0 1.28 0L 14.08 0C 14.7869 0 15.36 0.573076 15.36 1.28C 15.36 1.98692 14.7869 2.56 14.08 2.56L 1.28 2.56C 0.573076 2.56 0 1.98692 0 1.28Z"/>
<path id="path5_fill" d="M 0 1.28C 0 0.573076 0.573076 0 1.28 0C 1.98692 0 2.56 0.573076 2.56 1.28L 2.56 14.08C 2.56 14.7869 1.98692 15.36 1.28 15.36C 0.573076 15.36 0 14.7869 0 14.08L 0 1.28Z"/>
</defs>
</svg>
