<svg width="26" height="23" viewBox="0 0 26 23" version="1.1" xmlns="http://www.w3.org/2000/svg" xmlns:xlink="http://www.w3.org/1999/xlink">
<title>like</title>
<desc>Created using Figma</desc>
<g id="Canvas" transform="translate(-9064 892)">
<g id="like">
<g id="Shape">
<use xlink:href="#path0_fill" transform="translate(9065.56 -890.425)" fill="#484848" fill-opacity="0.01"/>
<use xlink:href="#path1_stroke" transform="translate(9065.56 -890.425)" fill="#FFFFFF"/>
</g>
</g>
</g>
<defs>
<path id="path0_fill" d="M 17.4322 0C 17.2102 0 16.9845 0.0130398 16.7588 0.0391193C 15.9038 0.139602 15.0428 0.432614 14.2028 0.910483C 13.2803 1.43361 12.3953 2.15386 11.4368 3.16253C 10.4768 2.1531 9.59325 1.43361 8.6715 0.909716C 7.8315 0.432614 6.9705 0.139602 6.114 0.0391193C 5.8909 0.0131571 5.66654 9.65422e-05 5.442 6.81273e-16C 4.02975 0 0 1.18048 0 6.42631C 0 12.4568 9.1785 18.9552 11.0197 20.1963C 11.2725 20.3685 11.6017 20.3685 11.8545 20.1963C 13.695 18.9552 22.8743 12.4568 22.8743 6.42631C 22.8743 1.17972 18.8438 0 17.4322 0Z"/>
<path id="path1_stroke" d="M 17.4322 0.9C 17.9293 0.9 18.3322 0.497056 18.3322 0C 18.3322 -0.497056 17.9293 -0.9 17.4322 -0.9L 17.4322 0.9ZM 16.7588 0.0391193L 16.6555 -0.854936L 16.6537 -0.854729L 16.7588 0.0391193ZM 14.2028 0.910483L 14.6467 1.69337L 14.6478 1.69276L 14.2028 0.910483ZM 11.4368 3.16253L 10.7846 3.78276C 10.9545 3.96144 11.1903 4.06258 11.4369 4.06253C 11.6835 4.06248 11.9193 3.96125 12.0892 3.78249L 11.4368 3.16253ZM 8.6715 0.909716L 9.11622 0.127267L 9.11599 0.127137L 8.6715 0.909716ZM 6.114 0.0391193L 6.21887 -0.854751L 6.21803 -0.854848L 6.114 0.0391193ZM 5.442 6.81273e-16L 5.44239 -0.9L 5.442 -0.9L 5.442 6.81273e-16ZM 11.0197 20.1963L 11.5264 19.4524L 11.5228 19.45L 11.0197 20.1963ZM 11.8545 20.1963L 11.3513 19.4501L 11.3479 19.4524L 11.8545 20.1963ZM 17.4322 -0.9C 16.9352 -0.9 16.5322 -0.497056 16.5322 0C 16.5322 0.497056 16.9352 0.9 17.4322 0.9L 17.4322 -0.9ZM 17.4322 -0.9C 17.1843 -0.899625 16.9069 -0.883606 16.6555 -0.854935L 16.862 0.933173C 17.0621 0.909686 17.2362 0.899625 17.4322 0.9L 17.4322 -0.9ZM 16.6537 -0.854729C 15.7051 -0.738211 14.6736 -0.3882 13.7577 0.128211L 14.6478 1.69276C 15.4119 1.25343 16.1024 1.01742 16.8638 0.932968L 16.6537 -0.854729ZM 13.7588 0.1276C 12.7724 0.690548 11.7837 1.49351 10.7843 2.54256L 12.0892 3.78249C 13.0068 2.81421 13.7881 2.17667 14.6467 1.69337L 13.7588 0.1276ZM 12.0889 2.5423C 11.0882 1.49272 10.1015 0.690875 9.11622 0.127267L 8.22678 1.69216C 9.08497 2.17634 9.86528 2.81348 10.7846 3.78276L 12.0889 2.5423ZM 9.11599 0.127137C 8.20036 -0.388327 7.16902 -0.738231 6.21887 -0.85475L 6.00913 0.932989C 6.77198 1.01744 7.46264 1.25355 8.22701 1.69229L 9.11599 0.127137ZM 6.21803 -0.854848C 5.9691 -0.883439 5.6929 -0.899517 5.44239 -0.9L 5.44161 0.9C 5.64018 0.899711 5.8127 0.909753 6.00997 0.933087L 6.21803 -0.854848ZM 5.442 -0.9C 4.55144 -0.9 2.98691 -0.547211 1.62785 0.544251C 0.22434 1.67142 -0.9 3.53948 -0.9 6.42631L 0.9 6.42631C 0.9 4.06731 1.79053 2.72222 2.75496 1.94769C 3.76384 1.13745 4.92031 0.9 5.442 0.9L 5.442 -0.9ZM -0.9 6.42631C -0.9 9.83863 1.65115 13.2031 4.18191 15.7426C 6.76459 18.3294 9.58895 20.3172 10.5167 20.9426L 11.5228 19.45C 10.6093 18.8343 7.92378 16.9524 5.4569 14.4721C 2.9381 11.9445 0.9 9.04449 0.9 6.42631L -0.9 6.42631ZM 10.5131 20.9402C 11.0716 21.3205 11.8027 21.3205 12.3611 20.9402L 11.3479 19.4524C 11.4008 19.4164 11.4735 19.4164 11.5264 19.4524L 10.5131 20.9402ZM 12.3577 20.9425C 13.285 20.3172 16.1093 18.3294 18.692 15.7426C 21.2229 13.2031 23.7743 9.83866 23.7743 6.42631L 21.9743 6.42631C 21.9743 9.04447 19.936 11.9445 17.4171 14.472C 14.9501 16.9524 12.2645 18.8344 11.3513 19.4501L 12.3577 20.9425ZM 23.7743 6.42631C 23.7743 3.53907 22.6497 1.67098 21.2461 0.543914C 19.8869 -0.547444 18.3224 -0.9 17.4322 -0.9L 17.4322 0.9C 17.9536 0.9 19.1101 1.1373 20.1191 1.94745C 21.0835 2.72188 21.9743 4.06695 21.9743 6.42631L 23.7743 6.42631Z"/>
</defs>
</svg>
