<svg width="18" height="16" viewBox="0 0 18 16" version="1.1" xmlns="http://www.w3.org/2000/svg" xmlns:xlink="http://www.w3.org/1999/xlink">
<title>Shape</title>
<desc>Created using Figma</desc>
<g id="Canvas" transform="translate(-7456 877)">
<g id="Shape">
<use xlink:href="#path0_fill" transform="translate(7457.38 -875.616)" fill="#484848" fill-opacity="0.01"/>
<use xlink:href="#path1_stroke" transform="translate(7457.38 -875.616)" fill="#767676"/>
</g>
</g>
<defs>
<path id="path0_fill" d="M 11.6215 0C 11.4735 0 11.323 0.00869318 11.1725 0.0260795C 10.6025 0.0930682 10.0285 0.288409 9.4685 0.606989C 8.8535 0.955739 8.2635 1.43591 7.6245 2.10835C 6.9845 1.4354 6.3955 0.955739 5.781 0.606477C 5.221 0.288409 4.647 0.0930682 4.076 0.0260795C 3.92727 0.0087714 3.77769 6.43614e-05 3.628 4.54182e-16C 2.6865 0 0 0.786988 0 4.2842C 0 8.30455 6.119 12.6368 7.3465 13.4642C 7.51503 13.579 7.73447 13.579 7.903 13.4642C 9.13 12.6368 15.2495 8.30455 15.2495 4.2842C 15.2495 0.786477 12.5625 0 11.6215 0Z"/>
<path id="path1_stroke" d="M 11.6215 0.5C 11.8976 0.5 12.1215 0.276142 12.1215 0C 12.1215 -0.276142 11.8976 -0.5 11.6215 -0.5L 11.6215 0.5ZM 11.1725 0.0260795L 11.1151 -0.470618L 11.1141 -0.470503L 11.1725 0.0260795ZM 9.4685 0.606989L 9.71514 1.04192L 9.71574 1.04158L 9.4685 0.606989ZM 7.6245 2.10835L 7.26219 2.45292C 7.3566 2.55219 7.4876 2.60838 7.6246 2.60835C 7.7616 2.60832 7.89258 2.55209 7.98695 2.45278L 7.6245 2.10835ZM 5.781 0.606477L 6.02807 0.171784L 6.02794 0.171711L 5.781 0.606477ZM 4.076 0.0260795L 4.13426 -0.470515L 4.13379 -0.470569L 4.076 0.0260795ZM 3.628 4.54182e-16L 3.62822 -0.5L 3.628 -0.5L 3.628 4.54182e-16ZM 7.3465 13.4642L 7.62796 13.0509L 7.62596 13.0496L 7.3465 13.4642ZM 7.903 13.4642L 7.62346 13.0496L 7.62154 13.0509L 7.903 13.4642ZM 11.6215 -0.5C 11.3454 -0.5 11.1215 -0.276142 11.1215 0C 11.1215 0.276142 11.3454 0.5 11.6215 0.5L 11.6215 -0.5ZM 11.6215 -0.5C 11.4591 -0.499792 11.2799 -0.489444 11.1151 -0.470617L 11.2299 0.522776C 11.3661 0.50683 11.4879 0.499792 11.6215 0.5L 11.6215 -0.5ZM 11.1141 -0.470503C 10.4922 -0.394606 9.82342 -0.167598 9.22126 0.172393L 9.71574 1.04158C 10.2336 0.744416 10.7128 0.580742 11.2309 0.522662L 11.1141 -0.470503ZM 9.22186 0.172053C 8.57139 0.542928 7.92378 1.06905 7.26205 1.76393L 7.98695 2.45278C 8.60322 1.80277 9.13561 1.36855 9.71514 1.04192L 9.22186 0.172053ZM 7.98681 1.76378C 7.32421 1.06852 6.67788 0.543109 6.02807 0.171784L 5.53393 1.04117C 6.11312 1.36837 6.64479 1.80227 7.26219 2.45292L 7.98681 1.76378ZM 6.02794 0.171711C 5.42592 -0.167669 4.75729 -0.394617 4.13426 -0.470515L 4.01774 0.522674C 4.53671 0.580753 5.01608 0.744487 5.53406 1.04124L 6.02794 0.171711ZM 4.13379 -0.470569C 3.97071 -0.489338 3.79234 -0.499721 3.62822 -0.5L 3.62778 0.5C 3.76305 0.49985 3.88382 0.50688 4.01821 0.522728L 4.13379 -0.470569ZM 3.628 -0.5C 3.05479 -0.5 2.03444 -0.271215 1.14785 0.440803C 0.236571 1.17266 -0.5 2.38898 -0.5 4.2842L 0.5 4.2842C 0.5 2.68222 1.10668 1.75643 1.77402 1.22049C 2.46606 0.664709 3.25971 0.5 3.628 0.5L 3.628 -0.5ZM -0.5 4.2842C -0.5 6.51497 1.17226 8.73213 2.85877 10.4245C 4.57413 12.1431 6.44932 13.4624 7.06704 13.8788L 7.62596 13.0496C 7.01618 12.6386 5.21812 11.3781 3.5671 9.71862C 1.88724 8.03292 0.5 6.07378 0.5 4.2842L -0.5 4.2842ZM 7.06504 13.8775C 7.40338 14.1079 7.84612 14.1079 8.18446 13.8775L 7.62154 13.0509C 7.62148 13.051 7.62282 13.0503 7.62475 13.0503C 7.62668 13.0503 7.62802 13.051 7.62796 13.0509L 7.06504 13.8775ZM 8.18254 13.8788C 8.79997 13.4624 10.6751 12.1431 12.3905 10.4245C 14.0771 8.73215 15.7495 6.51498 15.7495 4.2842L 14.7495 4.2842C 14.7495 6.07377 13.3622 8.0329 11.6822 9.71862C 10.0311 11.3781 8.23303 12.6386 7.62346 13.0496L 8.18254 13.8788ZM 15.7495 4.2842C 15.7495 2.38871 15.0128 1.17237 14.1014 0.440583C 13.2148 -0.271365 12.1944 -0.5 11.6215 -0.5L 11.6215 0.5C 11.9896 0.5 12.7832 0.664604 13.4753 1.22033C 14.1427 1.75621 14.7495 2.68197 14.7495 4.2842L 15.7495 4.2842Z"/>
</defs>
</svg>
