<svg width="20" height="20" viewBox="0 0 20 20" version="1.1" xmlns="http://www.w3.org/2000/svg" xmlns:xlink="http://www.w3.org/1999/xlink">
<title>svgexport-25</title>
<desc>Created using Figma</desc>
<g id="Canvas" transform="translate(-8942 24)">
<g id="svgexport-25">
<g id="Shape">
<use xlink:href="#path0_fill" transform="translate(8942 -24)"/>
</g>
</g>
</g>
<defs>
<path id="path0_fill" fill-rule="evenodd" d="M 17.0664 5.92917C 17.8633 5.30315 18.3301 4.34679 18.333 3.33333C 18.333 1.49238 16.8408 0 15 0C 13.1592 0 11.667 1.49238 11.667 3.33333C 11.667 4.38917 12.167 5.31833 12.9326 5.92917C 11.376 6.28246 10.2158 7.58435 10.043 9.17083L 10.0205 9.1687L 10 9.16667C 9.16113 9.16634 8.37891 9.58708 7.91699 10.2867C 7.55273 9.7625 6.96484 9.41 6.23926 9.25833C 7.0332 8.63213 7.49707 7.6777 7.5 6.66667C 7.5 4.82572 6.00781 3.33333 4.16699 3.33333C 2.32617 3.33333 0.833008 4.82572 0.833008 6.66667C 0.833008 7.73667 1.3457 8.6775 2.12891 9.2875C 0.90625 9.63333 0 10.7467 0 12.0808L 0 14.5858C 0.000976562 16.1947 1.30566 17.4986 2.91406 17.5L 5.89648 17.5C 6.18652 18.925 7.44629 20 8.95703 20L 11.043 20C 12.5283 20.0022 13.8096 18.9561 14.1045 17.5L 16.248 17.5C 17.2441 17.4996 18.1982 17.1036 18.9023 16.3992C 19.6055 15.6948 20.001 14.7398 20 13.7442L 20 9.58833C 19.999 7.83277 18.7803 6.31293 17.0664 5.93L 17.0664 5.92917ZM 12.5 3.33333C 12.5 1.95262 13.6191 0.833334 15 0.833334C 16.3809 0.833334 17.5 1.95262 17.5 3.33333C 17.5 4.71405 16.3809 5.83333 15 5.83333C 13.6191 5.83333 12.5 4.71405 12.5 3.33333ZM 11.666 11.6667C 11.666 10.7462 10.9199 10 10 10C 9.0791 10 8.33301 10.7462 8.33301 11.6667C 8.33301 12.5871 9.0791 13.3333 10 13.3333C 10.9199 13.3333 11.666 12.5871 11.666 11.6667ZM 1.66699 6.66667C 1.66699 5.28595 2.78613 4.16667 4.16699 4.16667C 5.54785 4.16667 6.66699 5.28595 6.66699 6.66667C 6.66699 8.04738 5.54785 9.16667 4.16699 9.16667C 2.78613 9.16667 1.66699 8.04738 1.66699 6.66667ZM 2.91406 16.6667L 5.85352 16.6667C 5.95215 15.1402 7.14941 13.9137 8.67285 13.7783C 7.94434 13.3238 7.50098 12.5258 7.5 11.6667L 7.5 11.6642C 7.50488 10.6275 6.69043 10 5.41895 10L 2.91406 10C 1.76562 10.0014 0.833984 10.9322 0.833008 12.0808L 0.833008 14.5858C 0.833984 15.7345 1.76562 16.6653 2.91406 16.6667ZM 8.95801 19.1667C 7.69336 19.1653 6.66797 18.1399 6.66699 16.875C 6.66602 16.2668 6.90625 15.6831 7.33691 15.2531C 7.7666 14.823 8.35059 14.582 8.95898 14.5833L 11.042 14.5833C 12.3076 14.5843 13.333 15.6097 13.334 16.875C 13.335 17.4832 13.0938 18.0669 12.6641 18.4969C 12.2334 18.927 11.6504 19.168 11.043 19.1667L 8.95801 19.1667ZM 18.3135 15.8099C 18.8604 15.2618 19.168 14.5187 19.167 13.7442L 19.167 9.58833C 19.167 7.97585 17.8613 6.66805 16.249 6.66667L 13.752 6.66667C 12.2295 6.66667 10.9932 7.83833 10.8594 9.3275C 11.8428 9.68544 12.499 10.6198 12.5 11.6667C 12.499 12.5259 12.0557 13.324 11.3262 13.7783C 12.8486 13.9167 14.0439 15.1415 14.1465 16.6667L 16.249 16.6667C 17.0234 16.6662 17.7656 16.358 18.3135 15.8099Z"/>
</defs>
</svg>
