<svg width="16" height="20" viewBox="0 0 16 20" version="1.1" xmlns="http://www.w3.org/2000/svg" xmlns:xlink="http://www.w3.org/1999/xlink">
<title>svgexport-23</title>
<desc>Created using Figma</desc>
<g id="Canvas" transform="translate(-8784 24)">
<g id="svgexport-23">
<g id="Shape">
<use xlink:href="#path0_fill" transform="translate(8784 -24)"/>
</g>
</g>
</g>
<defs>
<path id="path0_fill" fill-rule="evenodd" d="M 1.25684 0L 14.7432 0C 15.4395 0.00321388 16.001 0.56344 16 1.2525L 16 18.7475C 16 19.4383 15.4297 20 14.7295 20L 10.9473 20C 10.7148 20 10.5264 19.8135 10.5264 19.5833C 10.5264 19.3532 10.7148 19.1667 10.9473 19.1667L 14.7295 19.1667C 14.8428 19.1687 14.9521 19.1253 15.0332 19.0464C 15.1133 18.9675 15.1582 18.8598 15.1582 18.7475L 15.1582 1.2525C 15.1592 1.02367 14.9736 0.836533 14.7432 0.833334L 1.25684 0.833334C 1.02441 0.833334 0.841797 1.01667 0.841797 1.2525L 0.841797 18.7475C 0.841797 18.8582 0.885742 18.9645 0.963867 19.0432C 1.04297 19.1218 1.14941 19.1662 1.26172 19.1667L 7.15918 19.1667C 7.27148 19.1662 7.37793 19.1219 7.45703 19.0434C 7.53516 18.965 7.5791 18.8588 7.5791 18.7483L 7.5791 11.6667L 5.88672 11.6667C 5.42773 11.6667 5.05273 11.2967 5.05273 10.8417L 5.05273 8.325C 5.05371 7.86942 5.42676 7.50046 5.88672 7.5L 5.89453 7.5L 5.89453 6.66333C 5.89355 6.20651 6.2666 5.83517 6.72852 5.83333L 9.27148 5.83333C 9.7334 5.83517 10.1064 6.20651 10.1055 6.66333L 10.1133 7.5C 10.5732 7.50046 10.9463 7.86942 10.9473 8.325L 10.9473 10.8417C 10.9463 11.2972 10.5732 11.6662 10.1133 11.6667L 8.4209 11.6667L 8.4209 18.7483C 8.4209 19.4383 7.85547 20 7.15918 20L 1.26172 20C 0.56543 20 0 19.4392 0 18.7475L 0 1.2525C -0.000976562 0.56344 0.560547 0.00321388 1.25684 0ZM 5.88672 8.33333L 5.89453 10.8417L 7.57812 10.8383L 7.57812 10.0017C 7.57812 9.77155 7.7666 9.585 8 9.585C 8.23242 9.585 8.4209 9.77155 8.4209 10.0017L 8.4209 10.8367L 10.1123 10.8333L 10.1045 8.325L 9.2627 8.33333L 9.2627 6.66333L 6.72754 6.66667L 6.73633 8.33333L 5.88672 8.33333Z"/>
</defs>
</svg>
