<svg width="20" height="15" viewBox="0 0 20 15" version="1.1" xmlns="http://www.w3.org/2000/svg" xmlns:xlink="http://www.w3.org/1999/xlink">
<title>svgexport-24</title>
<desc>Created using Figma</desc>
<g id="Canvas" transform="translate(-8782 -23)">
<g id="svgexport-24">
<g id="Shape">
<use xlink:href="#path0_fill" transform="translate(8782 23)"/>
</g>
</g>
</g>
<defs>
<path id="path0_fill" fill-rule="evenodd" d="M 18.79 4.79996C 18.8965 4.80251 18.999 4.76281 19.0762 4.6896C 19.1533 4.61641 19.1982 4.51569 19.2012 4.40962C 19.2031 4.30354 19.1641 4.2008 19.0908 4.124C 16.5938 1.5088 13.3779 0 9.59961 0C 5.82227 0 2.60645 1.508 0.110352 4.124C -0.0419922 4.28394 -0.0361328 4.53717 0.124023 4.6896C 0.28418 4.84203 0.537109 4.83594 0.689453 4.676C 3.04004 2.2128 6.05273 0.799999 9.59961 0.799999C 13.1475 0.799999 16.1582 2.212 18.5107 4.676C 18.584 4.75282 18.6846 4.79741 18.79 4.79996ZM 16.7197 6.556C 16.8174 6.66795 16.8457 6.82505 16.792 6.96383C 16.7383 7.10261 16.6113 7.20012 16.4639 7.21695C 16.3164 7.23378 16.1709 7.16716 16.0879 7.044C 14.7598 5.3296 11.9082 4 9.59961 4C 7.33398 4 4.59473 5.2952 3.10547 7.0584C 2.96289 7.22718 2.70996 7.24831 2.54102 7.1056C 2.37207 6.96289 2.35156 6.71038 2.49414 6.5416C 4.13379 4.6008 7.09668 3.2 9.59961 3.2C 12.1514 3.2 15.2373 4.6384 16.7197 6.5552L 16.7197 6.556ZM 14.3574 9.3796C 14.4219 9.2518 14.4131 9.09947 14.335 8.98C 13.2305 7.3008 11.4717 6.4 9.60059 6.4C 7.72852 6.4 5.96973 7.3008 4.86621 8.98C 4.74414 9.16468 4.7959 9.4129 4.98047 9.5344C 5.16504 9.6559 5.41309 9.60468 5.53418 9.42C 6.48633 7.9712 7.99023 7.2 9.60059 7.2C 11.21 7.2 12.7139 7.9712 13.666 9.42C 13.7441 9.53947 13.8809 9.60793 14.0234 9.5996C 14.166 9.59127 14.2939 9.5074 14.3574 9.3796ZM 9.60059 9.6C 8.27441 9.6 7.2002 10.6745 7.2002 12C 7.2002 13.3255 8.27441 14.4 9.60059 14.4C 10.9258 14.4 12 13.3255 12 12C 12 10.6745 10.9258 9.6 9.60059 9.6ZM 9.59961 13.6C 8.7168 13.6 8 12.8837 8 12C 8 11.1163 8.7168 10.4 9.59961 10.4C 10.4834 10.4 11.2002 11.1163 11.2002 12C 11.2002 12.8837 10.4834 13.6 9.59961 13.6Z"/>
</defs>
</svg>
