<svg width="32" height="28" viewBox="0 0 32 28" version="1.1" xmlns="http://www.w3.org/2000/svg" xmlns:xlink="http://www.w3.org/1999/xlink">
<title>like</title>
<desc>Created using Figma</desc>
<g id="Canvas" transform="translate(-6964 -2931)">
<g id="like">
<g id="Shape">
<use xlink:href="#path0_fill" transform="translate(6964.75 2931.75)" fill="#484848" fill-opacity="0.5"/>
<use xlink:href="#path1_stroke" transform="translate(6964.75 2931.75)" fill="#FFFFFF"/>
</g>
</g>
</g>
<defs>
<path id="path0_fill" d="M 23.243 0C 22.947 0 22.646 0.017 22.345 0.051C 21.205 0.182 20.057 0.564 18.937 1.187C 17.707 1.869 16.527 2.808 15.249 4.123C 13.969 2.807 12.791 1.869 11.562 1.186C 10.442 0.564 9.294 0.182 8.152 0.051C 7.85453 0.017153 7.55539 0.000125862 7.256 8.88178e-16C 5.373 0 0 1.539 0 8.378C 0 16.24 12.238 24.712 14.693 26.33C 15.0301 26.5545 15.4689 26.5545 15.806 26.33C 18.26 24.712 30.499 16.24 30.499 8.378C 30.499 1.538 25.125 0 23.243 0Z"/>
<path id="path1_stroke" d="M 23.243 0.75C 23.6572 0.75 23.993 0.414214 23.993 0C 23.993 -0.414214 23.6572 -0.75 23.243 -0.75L 23.243 0.75ZM 22.345 0.051L 22.2608 -0.694262L 22.2594 -0.694097L 22.345 0.051ZM 18.937 1.187L 19.3007 1.84292L 19.3016 1.84242L 18.937 1.187ZM 15.249 4.123L 14.7114 4.64593C 14.8526 4.79114 15.0466 4.87304 15.2492 4.873C 15.4517 4.87296 15.6457 4.79098 15.7868 4.64571L 15.249 4.123ZM 11.562 1.186L 11.9263 0.530432L 11.9261 0.530327L 11.562 1.186ZM 8.152 0.051L 8.23747 -0.694114L 8.23679 -0.694192L 8.152 0.051ZM 7.256 8.88178e-16L 7.25632 -0.75L 7.256 -0.75L 7.256 8.88178e-16ZM 14.693 26.33L 15.1087 25.7057L 15.1057 25.7038L 14.693 26.33ZM 15.806 26.33L 15.3932 25.7038L 15.3903 25.7058L 15.806 26.33ZM 23.243 -0.75C 22.8288 -0.75 22.493 -0.414214 22.493 0C 22.493 0.414214 22.8288 0.75 23.243 0.75L 23.243 -0.75ZM 23.243 -0.75C 22.9258 -0.749702 22.5827 -0.730327 22.2608 -0.694261L 22.4292 0.796261C 22.7093 0.764327 22.9682 0.749702 23.243 0.75L 23.243 -0.75ZM 22.2594 -0.694097C 21.0429 -0.550278 19.755 -0.12251 18.5724 0.531575L 19.3016 1.84242C 20.359 1.25051 21.3671 0.914278 22.4306 0.796097L 22.2594 -0.694097ZM 18.5733 0.53108C 17.2902 1.24547 16.0236 2.25208 14.7112 3.60029L 15.7868 4.64571C 17.0304 3.36392 18.1238 2.49253 19.3007 1.84292L 18.5733 0.53108ZM 15.7866 3.60007C 14.4724 2.25106 13.2082 1.24573 11.9263 0.530432L 11.1977 1.84157C 12.3738 2.49227 13.4656 3.36294 14.7114 4.64593L 15.7866 3.60007ZM 11.9261 0.530327C 10.7438 -0.122613 9.456 -0.550294 8.23747 -0.694114L 8.06653 0.796114C 9.132 0.914294 10.1402 1.25061 11.1979 1.84167L 11.9261 0.530327ZM 8.23679 -0.694192C 7.91826 -0.730134 7.57687 -0.749567 7.25632 -0.75L 7.25568 0.75C 7.53391 0.749818 7.7908 0.76444 8.06721 0.796192L 8.23679 -0.694192ZM 7.256 -0.75C 6.16495 -0.75 4.18321 -0.319694 2.45868 1.03451C 0.696038 2.41863 -0.75 4.73205 -0.75 8.378L 0.75 8.378C 0.75 5.18495 1.99046 3.30937 3.38507 2.21425C 4.81779 1.08919 6.46405 0.75 7.256 0.75L 7.256 -0.75ZM -0.75 8.378C -0.75 12.6466 2.53166 16.9253 5.90061 20.2308C 9.31553 23.5775 13.0468 26.1433 14.2803 26.9562L 15.1057 25.7038C 13.8842 24.8987 10.269 22.4195 6.95114 19.1602C 3.58734 15.8597 0.75 11.9714 0.75 8.378L -0.75 8.378ZM 14.2773 26.9542C 14.8661 27.3464 15.6329 27.3464 16.2217 26.9542L 15.3903 25.7058C 15.305 25.7625 15.194 25.7625 15.1087 25.7058L 14.2773 26.9542ZM 16.2188 26.9562C 17.4517 26.1432 21.183 23.5775 24.598 20.2309C 27.9671 16.9253 31.249 12.6466 31.249 8.378L 29.749 8.378C 29.749 11.9714 26.9114 15.8597 23.5475 19.1601C 20.2295 22.4195 16.6143 24.8988 15.3932 25.7038L 16.2188 26.9562ZM 31.249 8.378C 31.249 4.73153 29.8027 2.41809 28.0399 1.03409C 26.3152 -0.319976 24.3335 -0.75 23.243 -0.75L 23.243 0.75C 24.0345 0.75 25.6808 1.08898 27.1136 2.21391C 28.5083 3.30891 29.749 5.18447 29.749 8.378L 31.249 8.378Z"/>
</defs>
</svg>
