<svg width="24" height="24" viewBox="0 0 24 24" version="1.1" xmlns="http://www.w3.org/2000/svg" xmlns:xlink="http://www.w3.org/1999/xlink">
<title>share</title>
<desc>Created using Figma</desc>
<g id="Canvas" transform="translate(-9025 893)">
<g id="share">
<g id="Shape">
<use xlink:href="#path0_fill" transform="translate(9025 -893)" fill="#FFFFFF"/>
</g>
</g>
</g>
<defs>
<path id="path0_fill" fill-rule="evenodd" d="M 8.27539 4.50403C 8.11719 4.61902 7.92676 4.67902 7.72461 4.67902C 7.45508 4.67999 7.20312 4.57001 7.03418 4.38C 6.9541 4.29004 6.89746 4.18591 6.86719 4.0755C 6.8418 3.98401 6.83398 3.88818 6.8457 3.79248C 6.87109 3.5813 6.98926 3.38861 7.17188 3.258L 11.4482 0.16803C 11.4727 0.153442 11.498 0.141052 11.5254 0.130981L 11.5996 0.0980225L 11.666 0.0629883L 11.6768 0.0560303C 11.7803 0.0189819 11.8896 0 12 0C 12.1143 -0.000488281 12.2275 0.0206299 12.333 0.0620117L 12.3877 0.09198L 12.4004 0.0980225L 12.4746 0.130981L 12.5244 0.153503L 12.5508 0.16803L 16.8271 3.258C 17.0088 3.38904 17.126 3.58148 17.1523 3.79218C 17.165 3.89832 17.1543 4.00458 17.1221 4.10504C 17.0898 4.20398 17.0371 4.29724 16.9648 4.37903C 16.8545 4.50385 16.708 4.59424 16.5449 4.64148C 16.458 4.66656 16.3672 4.6795 16.2744 4.67902C 16.0742 4.68005 15.8809 4.61829 15.7246 4.50403L 13.5322 2.91998L 12.8838 2.45203L 12.8838 16.242C 12.8838 16.681 12.4863 17.04 12 17.04C 11.5127 17.04 11.1162 16.681 11.1162 16.241L 11.1162 2.45099L 10.4678 2.91998L 8.27539 4.50403ZM 19.6963 8.49799L 23.1162 8.49799C 23.6006 8.49579 23.9951 8.85242 24 9.29602L 24 23.202C 24 23.642 23.6025 24 23.1162 24L 0.883789 24C 0.397461 24 0 23.642 0 23.202L 0 9.29602C 0.00488281 8.85242 0.399414 8.49579 0.883789 8.49799L 5.15918 8.49799C 5.64258 8.49579 6.03809 8.85242 6.04297 9.29602C 6.04297 9.73602 5.64551 10.095 5.15918 10.095L 1.76758 10.095L 1.76758 22.403L 22.2324 22.403L 22.2324 10.094L 19.6963 10.094C 19.209 10.094 18.8125 9.73602 18.8125 9.29602C 18.8174 8.85242 19.2129 8.49579 19.6963 8.49799Z"/>
</defs>
</svg>
