<svg width="16" height="16" viewBox="0 0 16 16" version="1.1" xmlns="http://www.w3.org/2000/svg" xmlns:xlink="http://www.w3.org/1999/xlink">
<title>Shape</title>
<desc>Created using Figma</desc>
<g id="Canvas" transform="translate(-7344 877)">
<g id="Shape">
<use xlink:href="#path0_fill" transform="translate(7344 -877)" fill="#767676"/>
</g>
</g>
<defs>
<path id="path0_fill" fill-rule="evenodd" d="M 5.51709 3.00269C 5.41211 3.07935 5.28467 3.11932 5.1499 3.11932C 5.03076 3.12 4.91699 3.08789 4.8208 3.02936C 4.77197 2.99951 4.72754 2.96283 4.68945 2.91998C 4.5918 2.8103 4.54639 2.66913 4.56348 2.52832C 4.58105 2.38751 4.65918 2.25903 4.78125 2.172L 7.63232 0.112C 7.64844 0.102295 7.66602 0.0940552 7.68408 0.0873413L 7.7334 0.0653687L 7.77783 0.0419922L 7.78516 0.0373535C 7.85352 0.0126343 7.92676 0 8 0C 8.07666 -0.000305176 8.15186 0.0137329 8.22217 0.0413208L 8.2583 0.0613403L 8.26709 0.0653687L 8.31641 0.0873413C 8.33447 0.0940552 8.35156 0.102356 8.36768 0.112L 11.2183 2.172C 11.3398 2.2594 11.4175 2.38763 11.4346 2.52808C 11.4448 2.61157 11.4331 2.69525 11.4019 2.77246C 11.3804 2.82513 11.3496 2.87476 11.3101 2.91931C 11.1978 3.04669 11.0283 3.1203 10.8496 3.11932C 10.7163 3.12006 10.5874 3.07886 10.4829 3.00269L 9.02148 1.94666L 8.58936 1.63464L 8.58936 10.828C 8.58936 11.1207 8.32471 11.36 8 11.36C 7.67529 11.36 7.41113 11.1207 7.41113 10.8273L 7.41113 1.63403L 6.97852 1.94666L 5.51709 3.00269ZM 13.1309 5.66534L 15.4111 5.66534C 15.7334 5.66388 15.9966 5.90161 16 6.19733L 16 15.468C 16 15.7614 15.7354 16 15.4111 16L 0.588867 16C 0.264648 16 0 15.7614 0 15.468L 0 6.19733C 0.00341797 5.90161 0.266602 5.66388 0.588867 5.66534L 3.43945 5.66534C 3.76172 5.66388 4.02539 5.90161 4.02832 6.19733C 4.02832 6.49066 3.76367 6.73004 3.43945 6.73004L 1.17822 6.73004L 1.17822 14.9354L 14.8218 14.9354L 14.8218 6.72937L 13.1309 6.72937C 12.8057 6.72937 12.542 6.49066 12.542 6.19733C 12.5449 5.90161 12.8081 5.66388 13.1309 5.66534Z"/>
</defs>
</svg>
