<svg width="42" height="45" viewBox="0 0 42 45" version="1.1" xmlns="http://www.w3.org/2000/svg" xmlns:xlink="http://www.w3.org/1999/xlink">
<title>svgexport-29 2</title>
<desc>Created using Figma</desc>
<g id="Canvas" transform="translate(-7137 -569)">
<g id="svgexport-29 2">
<g id="Vector">
<use xlink:href="#path0_fill" transform="translate(7137 569.979)" fill="#FFB400"/>
</g>
<g id="Vector">
<use xlink:href="#path1_fill" transform="translate(7138.23 569)" fill="#484848"/>
</g>
</g>
</g>
<defs>
<path id="path0_fill" d="M 6 39.0182C 6 39.2835 5.89464 39.538 5.70711 39.7256C 5.51957 39.9133 5.26522 40.0187 5 40.0187L 4 40.0187L 4 41.0191C 4 41.2845 3.89464 41.539 3.70711 41.7266C 3.51957 41.9142 3.26522 42.0196 3 42.0196C 2.73478 42.0196 2.48043 41.9142 2.29289 41.7266C 2.10536 41.539 2 41.2845 2 41.0191L 2 40.0187L 1 40.0187C 0.734784 40.0187 0.48043 39.9133 0.292893 39.7256C 0.105357 39.538 0 39.2835 0 39.0182C 0 38.7529 0.105357 38.4984 0.292893 38.3108C 0.48043 38.1231 0.734784 38.0177 1 38.0177L 2 38.0177L 2 37.0173C 2 36.7519 2.10536 36.4975 2.29289 36.3098C 2.48043 36.1222 2.73478 36.0168 3 36.0168C 3.26522 36.0168 3.51957 36.1222 3.70711 36.3098C 3.89464 36.4975 4 36.7519 4 37.0173L 4 38.0177L 5 38.0177C 5.26522 38.0177 5.51957 38.1231 5.70711 38.3108C 5.89464 38.4984 6 38.7529 6 39.0182ZM 9 42.0196C 8.80222 42.0196 8.60888 42.0783 8.44443 42.1882C 8.27998 42.2981 8.15181 42.4544 8.07612 42.6372C 8.00043 42.82 7.98063 43.0212 8.01921 43.2153C 8.0578 43.4093 8.15304 43.5876 8.29289 43.7275C 8.43275 43.8674 8.61093 43.9627 8.80491 44.0013C 8.99889 44.0399 9.19996 44.0201 9.38268 43.9444C 9.56541 43.8687 9.72159 43.7404 9.83147 43.5759C 9.94135 43.4114 10 43.2179 10 43.0201C 10 42.7547 9.89464 42.5003 9.70711 42.3126C 9.51957 42.125 9.26522 42.0196 9 42.0196ZM 41 2.00093L 40 2.00093L 40 1.00047C 40 0.735126 39.8946 0.480654 39.7071 0.29303C 39.5196 0.105406 39.2652 8.88593e-16 39 2.22148e-16C 38.7348 8.88593e-16 38.4804 0.105406 38.2929 0.29303C 38.1054 0.480654 38 0.735126 38 1.00047L 38 2.00093L 37 2.00093C 36.7348 2.00093 36.4804 2.10634 36.2929 2.29396C 36.1054 2.48159 36 2.73606 36 3.0014C 36 3.26674 36.1054 3.52121 36.2929 3.70884C 36.4804 3.89646 36.7348 4.00187 37 4.00187L 38 4.00187L 38 5.00233C 38 5.26767 38.1054 5.52215 38.2929 5.70977C 38.4804 5.89739 38.7348 6.0028 39 6.0028C 39.2652 6.0028 39.5196 5.89739 39.7071 5.70977C 39.8946 5.52215 40 5.26767 40 5.00233L 40 4.00187L 41 4.00187C 41.2652 4.00187 41.5196 3.89646 41.7071 3.70884C 41.8946 3.52121 42 3.26674 42 3.0014C 42 2.73606 41.8946 2.48159 41.7071 2.29396C 41.5196 2.10634 41.2652 2.00093 41 2.00093ZM 35.838 11.7455C 30.8166 10.939 26.1277 8.72114 22.318 5.3505C 22.2152 5.24809 22.0844 5.17843 21.9421 5.15033C 21.7998 5.12223 21.6524 5.13693 21.5185 5.1926C 21.3845 5.24826 21.27 5.34238 21.1895 5.46307C 21.109 5.58377 21.066 5.72563 21.066 5.87074L 21.222 38.3339C 21.2276 38.46 21.2648 38.5827 21.3301 38.6908C 21.3955 38.7988 21.4869 38.8887 21.5959 38.9522C 21.705 39.0157 21.8283 39.0508 21.9544 39.0543C 22.0806 39.0578 22.2056 39.0296 22.318 38.9722C 27.3655 36.8243 31.5233 33.0083 34.0966 28.162C 36.6699 23.3157 37.5027 17.7326 36.456 12.3458C 36.4292 12.193 36.3548 12.0527 36.2435 11.9449C 36.1321 11.837 35.9895 11.7672 35.836 11.7455L 35.838 11.7455Z"/>
<path id="path1_fill" d="M 23.5488 15.6162C 23.2906 14.8487 22.7981 14.1816 22.1407 13.709C 21.4833 13.2365 20.6943 12.9823 19.8848 12.9823C 19.0754 12.9823 18.2863 13.2365 17.629 13.709C 16.9716 14.1816 16.4791 14.8487 16.2208 15.6162L 11.3768 25.3107C 10.8219 26.2909 10.5453 27.4042 10.5768 28.5302C 10.638 29.6946 11.128 30.7952 11.9524 31.6195C 12.7767 32.4438 13.8769 32.9336 15.0408 32.9943C 16.8525 32.8636 18.5639 32.1124 19.8868 30.8673C 21.2095 32.1117 22.9199 32.8628 24.7308 32.9943C 25.8941 32.9332 26.9936 32.4435 27.8174 31.6196C 28.6413 30.7957 29.1312 29.696 29.1928 28.5322C 29.2247 27.4061 28.9481 26.2928 28.3928 25.3127L 23.5488 15.6162ZM 18.1148 24.3743C 18.1148 24.2742 18.1348 21.9131 19.8848 21.9131C 21.6348 21.9131 21.6528 24.2742 21.6528 24.3743C 21.4703 25.7533 20.8507 27.0373 19.8848 28.038C 18.919 27.0379 18.2987 25.7547 18.1148 24.3763L 18.1148 24.3743ZM 24.7308 30.9934C 23.4519 30.8694 22.2496 30.3264 21.3108 29.4486C 22.6342 28.0651 23.4584 26.2793 23.6528 24.3743C 23.7086 23.8456 23.6596 23.3111 23.5089 22.8013C 23.3581 22.2915 23.1084 21.8165 22.7741 21.4032C 22.4398 20.99 22.0275 20.6467 21.5605 20.3929C 21.0936 20.1391 20.5813 19.9799 20.0528 19.9242L 19.8848 19.9102C 19.3544 19.9436 18.8357 20.0812 18.3584 20.3151C 17.8811 20.5491 17.4546 20.8749 17.1032 21.2738C 16.7518 21.6728 16.4824 22.1371 16.3104 22.6402C 16.1384 23.1434 16.0672 23.6755 16.1008 24.2062L 16.1148 24.3743C 16.3095 26.2801 17.1353 28.0661 18.4608 29.4486C 17.5207 30.3267 16.3171 30.8697 15.0368 30.9934C 14.4044 30.9341 13.8125 30.6558 13.3634 30.2064C 12.9143 29.7571 12.6361 29.1649 12.5768 28.5322C 12.5457 27.717 12.7491 26.9101 13.1628 26.2071L 18.0108 16.5106C 18.6628 15.206 19.1148 14.9859 19.8848 14.9859C 20.6548 14.9859 21.1088 15.206 21.7588 16.5106L 26.6048 26.2071C 27.0195 26.9098 27.2236 27.7168 27.1928 28.5322C 27.1335 29.1652 26.8551 29.7576 26.4055 30.207C 25.956 30.6564 25.3636 30.9346 24.7308 30.9934ZM 38.7568 10.2937C 38.7167 10.0878 38.6128 9.89966 38.4599 9.75603C 38.307 9.61239 38.1128 9.52049 37.9048 9.49332C 31.1475 8.82293 24.9186 5.53979 20.5448 0.343054C 20.4477 0.235077 20.3289 0.148739 20.1963 0.0896397C 20.0636 0.0305403 19.92 -4.77986e-08 19.7748 -4.77986e-08C 19.6296 -4.77986e-08 19.486 0.0305403 19.3534 0.0896397C 19.2207 0.148739 19.102 0.235077 19.0048 0.343054C 14.6307 5.53904 8.40191 8.82144 1.64484 9.49132C 1.4366 9.51861 1.24222 9.61081 1.0893 9.75483C 0.936368 9.89885 0.832646 10.0874 0.79284 10.2937C -2.35916 26.6873 3.89684 38.3368 19.3868 44.9199C 19.5101 44.9726 19.6428 44.9998 19.7768 44.9998C 19.9109 44.9998 20.0436 44.9726 20.1668 44.9199C 35.6568 38.3368 41.9108 26.6873 38.7588 10.2937L 38.7568 10.2937ZM 19.7768 42.9109C 5.57884 36.736 -0.0351596 26.4112 2.62884 11.3742C 9.21495 10.5498 15.2932 7.40855 19.7768 2.51207C 24.2604 7.40855 30.3387 10.5498 36.9248 11.3742C 39.5888 26.4092 33.9748 36.734 19.7768 42.9109Z"/>
</defs>
</svg>
