<svg width="20" height="19" viewBox="0 0 20 19" version="1.1" xmlns="http://www.w3.org/2000/svg" xmlns:xlink="http://www.w3.org/1999/xlink">
<title>Shape</title>
<desc>Created using Figma</desc>
<g id="Canvas" transform="translate(-8009 -825)">
<g id="Shape">
<use xlink:href="#path0_fill" transform="translate(8009.01 825.008)" fill="#008489"/>
</g>
</g>
<defs>
<path id="path0_fill" d="M 19.9002 7.127C 20.089 7.68582 19.9421 8.1249 19.4804 8.46418L 14.7354 11.8989L 16.5612 17.4892C 16.7921 18.2675 16.1835 18.986 15.428 18.986C 15.1761 18.986 14.9453 18.9062 14.7354 18.7465L 9.9904 15.3138L 5.24538 18.7485C 4.72073 19.0878 4.00719 18.988 3.60845 18.509C 3.35661 18.1897 3.29365 17.8504 3.44056 17.4912L 5.24538 11.9409L 0.479383 8.46418C 0.0386692 8.1249 -0.108235 7.68582 0.0806419 7.127C 0.248533 6.648 0.689246 6.32868 1.17193 6.32868L 7.05021 6.32868L 8.87603 0.778361C 9.02293 0.319328 9.46364 0 9.96732 0C 10.492 0 10.9537 0.339286 11.1006 0.818277L 12.9264 6.32868L 18.8047 6.32868C 19.2916 6.32868 19.7323 6.648 19.9002 7.127Z"/>
</defs>
</svg>
