<svg width="50" height="35" viewBox="0 0 50 35" version="1.1" xmlns="http://www.w3.org/2000/svg" xmlns:xlink="http://www.w3.org/1999/xlink">
<title>Group 3</title>
<desc>Created using Figma</desc>
<g id="Canvas" transform="translate(-7814 -1538)">
<g id="Group 3">
<g id="Rectangle 8">
<use xlink:href="#path0_fill" transform="translate(7814 1538)" fill="url(#paint0_linear)"/>
</g>
<g id="153">
<use xlink:href="#path1_fill" transform="translate(7824 1544)" fill="#FFFFFF"/>
</g>
</g>
</g>
<defs>
<linearGradient id="paint0_linear" x1="0" y1="0" x2="1" y2="0" gradientUnits="userSpaceOnUse" gradientTransform="matrix(32.4604 35 -50 22.7223 17.5396 -2.9277e-07)">
<stop offset="0" stop-color="#FFC333" stop-opacity="0.8"/>
<stop offset="0.415219" stop-color="#FFC333"/>
<stop offset="0.416235" stop-color="#FFB400"/>
<stop offset="1" stop-color="#FFB400"/>
</linearGradient>
<path id="path0_fill" fill-rule="evenodd" d="M 0 6C 0 2.68629 2.68629 0 6 0L 44 0C 47.3137 0 50 2.68629 50 6L 50 29C 50 32.3137 47.3137 35 44 35L 6 35C 2.68629 35 0 32.3137 0 29L 0 6Z"/>
<path id="path1_fill" d="M 6.44184 18L 3.97584 18L 3.97584 9.324L 0.915844 9.324L 0.915844 7.632C 1.81584 7.608 2.57184 7.374 3.18384 6.93C 3.79584 6.474 4.16184 5.91 4.28184 5.238L 6.44184 5.238L 6.44184 18ZM 8.63306 14.418L 10.9731 13.86C 11.0211 14.52 11.2671 15.066 11.7111 15.498C 12.1671 15.918 12.7491 16.128 13.4571 16.128C 14.1171 16.128 14.6691 15.93 15.1131 15.534C 15.5571 15.126 15.7791 14.586 15.7791 13.914C 15.7791 13.194 15.5511 12.636 15.0951 12.24C 14.6391 11.844 14.0811 11.646 13.4211 11.646C 12.5451 11.646 11.8551 11.94 11.3511 12.528C 11.2671 12.504 11.0451 12.432 10.6851 12.312C 10.3251 12.18 9.98306 12.06 9.65906 11.952C 9.34706 11.832 9.13706 11.748 9.02906 11.7L 10.5771 5.238L 17.6151 5.238L 17.6151 7.398L 12.2691 7.398L 11.5311 10.44C 12.1071 9.9 12.9051 9.63 13.9251 9.63C 15.2211 9.63 16.2711 10.008 17.0751 10.764C 17.8791 11.52 18.2811 12.558 18.2811 13.878C 18.2811 15.114 17.8371 16.158 16.9491 17.01C 16.0731 17.85 14.9091 18.27 13.4571 18.27C 12.1131 18.27 10.9971 17.892 10.1091 17.136C 9.23306 16.38 8.74106 15.474 8.63306 14.418ZM 23.1332 12.258L 21.9992 10.458L 25.4552 7.398L 19.7312 7.398L 19.7312 5.238L 28.6412 5.238L 28.6412 7.29L 25.2392 10.224C 26.2592 10.248 27.1412 10.614 27.8852 11.322C 28.6292 12.03 29.0012 12.954 29.0012 14.094C 29.0012 15.258 28.5692 16.248 27.7052 17.064C 26.8412 17.868 25.6712 18.27 24.1952 18.27C 22.7912 18.27 21.6452 17.874 20.7572 17.082C 19.8692 16.29 19.3892 15.342 19.3172 14.238L 21.7292 13.752C 21.7532 14.448 21.9932 15.018 22.4492 15.462C 22.9172 15.906 23.4932 16.128 24.1772 16.128C 24.8852 16.128 25.4432 15.936 25.8512 15.552C 26.2712 15.156 26.4812 14.664 26.4812 14.076C 26.4812 13.392 26.2592 12.876 25.8152 12.528C 25.3712 12.18 24.8492 12.006 24.2492 12.006C 23.8652 12.006 23.4932 12.09 23.1332 12.258Z"/>
</defs>
</svg>
